<?xml version='1.0' encoding='UTF-8'?>
<svg xmlns="http://www.w3.org/2000/svg" width="17.6389mm" height="17.6389mm" viewBox="0 0 50 50" version="1.2" baseProfile="tiny">
<title>TheKeyMachine slider icon</title>
<desc>Vector slider text icon</desc>
<defs>
</defs>
<path fill="none" stroke="#3c3c3c" stroke-width="4" fill-rule="evenodd" stroke-linecap="round" stroke-linejoin="round" stroke-opacity="1" transform="matrix(1,0,0,1,0,0)" font-family="Lucida Grande" font-size="11" font-weight="400" font-style="normal" vector-effect="none" d="M2.12344,14.6 L22.9234,14.6 L22.9234,18.76 L14.6034,18.76 L14.6034,35.4 L10.4434,35.4 L10.4434,18.76 L2.12344,18.76 L2.12344,14.6 M43.7166,28.926 L43.7166,14.6 L47.8766,14.6 L47.8766,35.4 L43.6906,35.4 L42.1566,33.502 L37.4766,28.068 L32.3546,33.996 L31.2366,35.4 L27.0766,35.4 L27.0766,14.6 L31.2366,14.6 L31.2366,28.926 L37.4766,21.698 L43.7166,28.926" /><path fill="#d4d361" stroke="none" stroke-width="1" fill-rule="evenodd" stroke-linecap="square" stroke-linejoin="bevel" fill-opacity="1" transform="matrix(1,0,0,1,0,0)" font-family="Lucida Grande" font-size="11" font-weight="400" font-style="normal" vector-effect="none" d="M2.12344,14.6 L22.9234,14.6 L22.9234,18.76 L14.6034,18.76 L14.6034,35.4 L10.4434,35.4 L10.4434,18.76 L2.12344,18.76 L2.12344,14.6 M43.7166,28.926 L43.7166,14.6 L47.8766,14.6 L47.8766,35.4 L43.6906,35.4 L42.1566,33.502 L37.4766,28.068 L32.3546,33.996 L31.2366,35.4 L27.0766,35.4 L27.0766,14.6 L31.2366,14.6 L31.2366,28.926 L37.4766,21.698 L43.7166,28.926" /></svg>
