<?xml version="1.0" encoding="UTF-8"?>
<svg id="Layer_1" xmlns="http://www.w3.org/2000/svg" version="1.1" viewBox="0 0 50 50">
  <!-- Generator: Adobe Illustrator 30.1.0, SVG Export Plug-In . SVG Version: 2.1.1 Build 136)  -->
  <defs>
    <style>
      .st0 {
        fill: #81bda4;
      }

      .st1 {
        fill: #577e6e;
      }
    </style>
  </defs>
  <path class="st1" d="M10,32.78c-2.22-1.72-2.65-4.95-.95-7.21l10.83-14.41c.77-1.03,1.88-1.75,3.13-2.03l5.3-1.19c-.56-.13-1.14-.17-1.74-.1l-8.16.87c-.89.1-1.72.51-2.35,1.17L2.92,23.74c-1.33,1.41-1.28,3.64.1,4.99l9.83,9.57c.87.84,2.92,1.37,4.14-.1l-7-5.42Z"/>
  <path class="st1" d="M24.55,40.53c.18-.12.35-.29.49-.5.79-1.16.98-2.63,1.11-3.99.25-2.77.34-5.56.34-8.34,0-2.59-.14-5.28.05-7.91.08-1.13.06-2.56.6-3.57s1.16-2.13,1.8-3.16c.84-1.34,2.01-2.68,2.61-4.15-.45-.16-1.28.19-1.75.29l-2.76.62c-1.23.28-2.47.55-3.7.83-.89.2-1.69.72-2.24,1.45,0,0-10.83,14.41-10.83,14.41-1.19,1.58-.89,3.83.67,5.04,0,0,11.02,8.54,11.02,8.54.76.76,1.83.97,2.61.44Z"/>
  <path class="st0" d="M42.22,16.97l-5.31-6.38c-2.15-2.58-6.06-2.58-8.21,0l-5.31,6.38c-.58.7-.9,1.58-.9,2.5v17.85c0,1.95,1.56,3.54,3.48,3.54h13.65c1.92,0,3.48-1.58,3.48-3.54v-17.85c0-.91-.32-1.8-.9-2.5ZM33.39,16.65c-2.12.41-3.95-1.44-3.54-3.6.22-1.2,1.19-2.18,2.37-2.4,2.12-.41,3.95,1.45,3.55,3.6-.22,1.2-1.19,2.18-2.37,2.4Z"/>
</svg>