<?xml version="1.0" encoding="UTF-8"?>
<svg id="Layer_1" xmlns="http://www.w3.org/2000/svg" version="1.1" viewBox="0 0 50 50">
  <!-- Generator: Adobe Illustrator 30.1.0, SVG Export Plug-In . SVG Version: 2.1.1 Build 136)  -->
  <defs>
    <style>
      .st0 {
        fill: #afb6c6;
      }

      .st1 {
        fill: #70747a;
      }
    </style>
  </defs>
  <path class="st0" d="M25.1,21.1c-2.2,0-3.9,1.8-3.9,4,0,1.4.7,2.6,1.9,3.3v16.2h3.9v-16.2c1.9-1.1,2.5-3.5,1.4-5.4-.7-1.2-2-1.9-3.3-1.9Z"/>
  <path class="st1" d="M19.3,32l1.2-2.3c-1.2-1.2-2-2.8-2-4.7,0-3.6,2.9-6.5,6.5-6.5s6.5,2.9,6.5,6.5-.8,3.5-2,4.7l1.2,2.3c2-1.7,3.3-4.2,3.3-7,0-5-4-9-9-9s-9,4.1-9,9,1.3,5.3,3.3,7Z"/>
  <path class="st1" d="M17,36.2l1.2-2.2c-2.7-2.1-4.5-5.3-4.5-9,0-6.2,5.1-11.3,11.3-11.3s11.3,5.1,11.3,11.3-1.8,6.9-4.5,9l1.2,2.2c3.5-2.5,5.8-6.6,5.8-11.2,0-7.6-6.2-13.8-13.8-13.8s-13.8,6.2-13.8,13.8,2.3,8.7,5.8,11.2Z"/>
  <path class="st0" d="M14.8,40.4l1.2-2.2c-4.2-2.9-6.9-7.7-6.9-13.1,0-8.8,7.2-15.9,15.9-15.9s15.9,7.2,15.9,15.9-2.7,10.3-6.9,13.1l1.2,2.2c5-3.3,8.2-9,8.2-15.4,0-10.2-8.3-18.4-18.4-18.4S6.6,14.8,6.6,25s3.3,12,8.2,15.4Z"/>
</svg>