<?xml version="1.0" encoding="UTF-8"?>
<svg id="Layer_1" xmlns="http://www.w3.org/2000/svg" version="1.1" viewBox="0 0 50 50">
  <!-- Generator: Adobe Illustrator 30.1.0, SVG Export Plug-In . SVG Version: 2.1.1 Build 136)  -->
  <defs>
    <style>
      .st0 {
        fill: #ca6161;
      }
    </style>
  </defs>
  <g id="surface1">
    <path class="st0" d="M5.98,35.6v6.34c0,.88.71,1.58,1.58,1.58s1.59-.71,1.59-1.58v-6.34h4.64c2.36,3.93,6.61,6.34,11.2,6.34s8.84-2.4,11.2-6.34h4.64v6.34c0,.88.71,1.58,1.59,1.58s1.58-.71,1.58-1.58v-6.34c0-1.75-1.42-3.17-3.17-3.17h-3.25c.34-1.17.52-2.38.52-3.6,0-.54-.04-1.09-.11-1.63l-.28-1.11h4.71c.88,0,1.58-.71,1.58-1.59s-.71-1.59-1.58-1.59h-5.51l-1.6-6.34h5.53c1.75,0,3.17-1.42,3.17-3.17v-5.34c0-.88-.71-1.59-1.58-1.59s-1.59.71-1.59,1.59v5.34h-6.34s-.05.02-.08.02c-1.55-3.84-5.28-6.36-9.42-6.36s-7.87,2.51-9.42,6.36c-.03,0-.06-.02-.09-.02h-6.34v-5.34c0-.88-.71-1.59-1.59-1.59s-1.58.71-1.58,1.59v5.34c0,1.75,1.42,3.17,3.17,3.17h5.52l-1.61,6.34h-5.5c-.88,0-1.58.71-1.58,1.59s.71,1.59,1.58,1.59h4.7l-.23.91-.03.2c-.07.54-.11,1.09-.11,1.63,0,1.22.17,2.43.51,3.59h-3.25c-1.75,0-3.17,1.42-3.17,3.17Z"/>
  </g>
</svg>