<?xml version="1.0" encoding="UTF-8"?>
<svg id="Layer_1" xmlns="http://www.w3.org/2000/svg" version="1.1" viewBox="0 0 50 50">
  <!-- Generator: Adobe Illustrator 30.1.0, SVG Export Plug-In . SVG Version: 2.1.1 Build 136)  -->
  <defs>
    <style>
      .st0 {
        fill: #f3ebff;
      }

      .st1 {
        fill: #7d618e;
      }

      .st2 {
        fill: #c191db;
      }
    </style>
  </defs>
  <path class="st1" d="M45.41,18.35v12.18c0,1.26-.7,2.39-1.82,2.95-.47.23-.98.35-1.48.35-.7,0-1.39-.22-1.98-.66-.06-.05-1.37-1.35-1.37-1.35v-14.75s1.31-1.31,1.37-1.36c1.01-.76,2.33-.88,3.46-.31,1.13.56,1.82,1.7,1.82,2.96h0Z"/>
  <path class="st2" d="M28.72,11.13h-13.31c-4.59,0-8.32,3.75-8.32,8.36v10.03c0,4.61,3.73,8.36,8.32,8.36h13.31c4.59,0,8.32-3.75,8.32-8.36v-10.03c0-4.61-3.73-8.36-8.32-8.36Z"/>
  <path class="st0" d="M27.06,22.83h-3.33v-3.33c0-.92-.75-1.67-1.66-1.67s-1.67.75-1.67,1.67v3.33h-3.33c-.92,0-1.67.75-1.67,1.67s.75,1.66,1.67,1.66h3.33v3.33c0,.92.75,1.66,1.67,1.66s1.66-.75,1.66-1.66v-3.33h3.33c.92,0,1.66-.75,1.66-1.66s-.75-1.67-1.66-1.67Z"/>
</svg>