<?xml version="1.0" encoding="UTF-8"?>
<svg id="Layer_1" xmlns="http://www.w3.org/2000/svg" version="1.1" viewBox="0 0 50 50">
  <!-- Generator: Adobe Illustrator 30.1.0, SVG Export Plug-In . SVG Version: 2.1.1 Build 136)  -->
  <defs>
    <style>
      .st0 {
        fill: #66686b;
      }

      .st1 {
        fill: #b46060;
      }

      .st2 {
        fill: #b8bcc1;
      }
    </style>
  </defs>
  <g id="surface2">
    <path class="st0" d="M41.32,43.04h-2.58c-.47,0-.86-.38-.86-.86s.39-.86.86-.86h2.58c.47,0,.86.39.86.86s-.39.86-.86.86Z"/>
    <path class="st0" d="M35.31,43.04h-15.46c-.47,0-.86-.38-.86-.86s.39-.86.86-.86h15.46c.47,0,.86.39.86.86s-.39.86-.86.86Z"/>
    <path class="st1" d="M32.2,33.04l-9,8.99c-.64.64-1.51,1-2.43,1h-3.38c-.91,0-1.79-.36-2.43-1l-7.86-7.86c-1.34-1.34-1.34-3.51,0-4.85l10.69-10.68,14.4,14.4h.01Z"/>
    <path class="st0" d="M42.9,22.36l-10.69,10.69-14.4-14.4,10.68-10.68c1.34-1.34,3.52-1.34,4.86,0l9.54,9.53c1.34,1.35,1.34,3.52,0,4.86h0Z"/>
    <path class="st2" d="M16.58,19.86l2.43-2.43,14.39,14.39-2.43,2.43s-14.39-14.39-14.39-14.39Z"/>
  </g>
</svg>