<?xml version="1.0" encoding="UTF-8"?>
<svg id="Layer_1" xmlns="http://www.w3.org/2000/svg" version="1.1" viewBox="0 0 50 50">
  <!-- Generator: Adobe Illustrator 30.3.0, SVG Export Plug-In . SVG Version: 2.1.3 Build 182)  -->
  <defs>
    <style>
      .st0 {
        fill: #8aa8b2;
        stroke: #2c4249;
        stroke-miterlimit: 10;
        stroke-width: 2px;
      }
    </style>
  </defs>
  <path class="st0" d="M22.69,43.79c-1.73-.26-3.07-.97-4.55-1.89-.48-.29-.93-.61-1.35-.96-1.27-1.04-2.28-2.32-2.98-3.79s-1.06-3.12-1.06-4.9c0-1.35.25-2.61.76-3.74.5-1.12,1.2-2.11,2.08-2.94.87-.82,1.92-1.49,3.1-2,.19-.08.39-.16.58-.23-2.81-1.54-4.23-3.93-4.23-7.12,0-1.5.23-2.66.7-3.56.68-1.3,1.43-2.26,2.36-3.04,1-.84,2.22-1.5,3.61-1.96,1.38-.45,2.92-.68,4.6-.68,3.47,0,6.53.74,9.07,2.21l.5.29v5.54l-1.03.03h-.34l-.29-.21c-2.12-1.55-4.42-2.34-6.83-2.34-5.19,0-6.12,2.42-6.13,4.2,0,1.62.55,2.29,1.21,2.94.95.95,2.85,1.35,6.36,1.35h3.97v5.52h-4.13c-9.52,0-9.52,4.6-9.52,6.12,0,.92.17,1.76.52,2.48.35.73.83,1.34,1.48,1.85.66.52,1.47.93,2.4,1.22.96.29,2.06.44,3.27.44,3.02,0,5.74-.89,8.08-2.65l.27-.2h1.35l.03,1.03v4.96l-.47.29c-1.26.78-2.77,1.35-4.5,1.71-2.27.46-5.5.53-7.79.19l-1.1-.16Z"/>
</svg>