<?xml version="1.0" encoding="UTF-8"?>
<svg id="Layer_1" xmlns="http://www.w3.org/2000/svg" version="1.1" viewBox="0 0 50 50">
  <!-- Generator: Adobe Illustrator 30.1.0, SVG Export Plug-In . SVG Version: 2.1.1 Build 136)  -->
  <defs>
    <style>
      .st0 {
        fill: #bdbdbd;
      }

      .st0, .st1, .st2 {
        stroke: #3c3c3c;
        stroke-miterlimit: 10;
        stroke-width: 2px;
      }

      .st3 {
        fill: #3c3c3c;
      }

      .st1 {
        fill: none;
        stroke-linecap: round;
      }

      .st2 {
        fill: #9a9b9c;
      }
    </style>
  </defs>
  <path class="st2" d="M14.8,6.5h20.4c4.2,0,7.6,3.4,7.6,7.6v20.4c0,4.2-3.4,7.6-7.6,7.6H14.8c-4.2,0-7.6-3.4-7.6-7.6V14c0-4.2,3.4-7.5,7.6-7.5h0Z"/>
  <rect class="st0" x="10.9" y="6.5" width="28.3" height="28.3" rx="5.3" ry="5.3"/>
  <line class="st1" x1="13.2" y1="34.5" x2="10.5" y2="39.2"/>
  <line class="st1" x1="36.5" y1="34.5" x2="40.1" y2="39.7"/>
  <polygon class="st3" points="27.7 12.5 27.7 17.3 22.3 17.3 22.3 12.5 19.5 12.5 19.5 24.6 22.3 24.6 22.3 19.6 27.7 19.6 27.7 24.6 30.5 24.6 30.5 12.5 27.7 12.5"/>
</svg>