<?xml version="1.0" encoding="UTF-8"?>
<svg id="Layer_1" xmlns="http://www.w3.org/2000/svg" version="1.1" viewBox="0 0 50 50">
  <!-- Generator: Adobe Illustrator 30.1.0, SVG Export Plug-In . SVG Version: 2.1.1 Build 136)  -->
  <defs>
    <style>
      .st0 {
        fill: #68a48c;
      }

      .st1 {
        fill: #f0f0f0;
      }

      .st2 {
        fill: #577e6e;
      }
    </style>
  </defs>
  <g id="surface2">
    <path class="st0" d="M23.62,39.66l6.66-6.62c1.75-1.7,2.73-4.19,2.73-6.66,0-.73-.29-2.2-.79-3.61-.44-1.36-1.13-2.63-1.96-2.63-.34,0-1.36.79-2.09,1.61-.83.83-1.61,1.7-1.61,2.05,0,.24.15.63.38,1.02.24.44.44.93.44,1.56-.05.98-.44,1.96-1.13,2.73l-3.95,3.9c-.34.38-.73.79-1.13,1.22l-1.22,1.22c-.83.79-1.84,1.32-3.07,1.32-2.04,0-3.69-1.61-3.69-3.69,0-.5.1-.93.24-1.27.29-.69.59-1.17.93-1.56.15-.19.19-.38.19-.53,0-.1-.05-.19-.1-.38-.59-1.32-.93-2.44-1.17-3.8-.1-.24-.15-.45-.29-.54-.15-.19-.38-.24-.64-.24-.19,0-.34.05-.53.19-.38.24-.79.64-1.13,1.02-.15.19-.34.34-.44.44-1.75,1.75-2.78,4.19-2.78,6.66s1.02,4.95,2.78,6.66c1.7,1.7,4.05,2.73,6.61,2.73s4.95-.98,6.66-2.78h.08Z"/>
    <path class="st2" d="M23.77,20.97l3.9-3.95c.34-.34.73-.79,1.13-1.27.38-.44.83-.83,1.27-1.17.83-.73,1.8-1.36,3.01-1.36,1.07,0,1.99.5,2.68,1.13.69.64,1.07,1.56,1.07,2.63,0,.44-.05.93-.19,1.27-.34.69-.64,1.17-.93,1.56-.15.19-.29.38-.29.58,0,.15,0,.29.1.34.53,1.32.93,2.44,1.17,3.8.15.54.44.79.93.79.19,0,.38-.05.59-.19.38-.24.73-.64,1.07-1.02.19-.19.34-.38.44-.48,1.75-1.7,2.78-4.14,2.78-6.61,0-2.63-1.07-4.97-2.78-6.68-1.7-1.65-4.09-2.78-6.62-2.78s-4.95,1.02-6.66,2.82l-6.66,6.61c-1.75,1.8-2.73,4.14-2.73,6.61,0,.73.29,2.25.79,3.66.48,1.36,1.13,2.59,1.94,2.59.44,0,1.36-.73,2.13-1.56.79-.83,1.56-1.75,1.56-2.1,0-.24-.19-.54-.38-.98-.24-.44-.34-.98-.34-1.61,0-.98.38-1.94,1.07-2.63h0l-.05.02h0Z"/>
  </g>
  <g>
    <path class="st2" d="M30.33,27.84h13.3c1.42,0,2.58,1.15,2.58,2.58v13.45c0,1.42-1.15,2.57-2.57,2.57h-13.31c-1.42,0-2.57-1.15-2.57-2.57v-13.45c0-1.42,1.15-2.58,2.58-2.58h0Z"/>
    <path class="st1" d="M41.5,37.11c-.59-.59-1.54-.59-2.12,0l-.88.88.02-5.01c0-.83-.67-1.5-1.5-1.5h0c-.83,0-1.5.67-1.5,1.5l-.02,5.12-.92-.92c-.59-.59-1.54-.59-2.12,0-.59.59-.59,1.54,0,2.12l3.43,3.43c.28.28.66.44,1.06.44s.78-.16,1.06-.44l3.49-3.49c.59-.59.59-1.54,0-2.12h0Z"/>
  </g>
</svg>