<?xml version="1.0" encoding="UTF-8"?>
<svg id="Layer_1" xmlns="http://www.w3.org/2000/svg" version="1.1" viewBox="0 0 30 30">
  <!-- Generator: Adobe Illustrator 30.1.0, SVG Export Plug-In . SVG Version: 2.1.1 Build 136)  -->
  <defs>
    <style>
      .st0 {
        fill: #68a48c;
      }

      .st1 {
        fill: #f0f0f0;
      }

      .st2 {
        fill: none;
        stroke: #68a48c;
        stroke-miterlimit: 10;
        stroke-width: 1.5px;
      }
    </style>
  </defs>
  <path class="st0" d="M13.27,6.33l-4.44,4.39c-.58.58-.59,1.52,0,2.11h0c.57.58,1.52.59,2.11,0l2.59-2.56-.05,6.55c0,.83.67,1.49,1.49,1.49h0c.82,0,1.49-.67,1.49-1.48l.05-6.54,2.56,2.59c.58.58,1.52.59,2.11,0h0c.58-.57.59-1.52,0-2.11l-4.39-4.45c-.93-.94-2.57-.96-3.52-.02h0v.03Z"/>
  <line class="st2" x1="4.99" y1="22.12" x2="25.01" y2="22.12"/>
  <g>
    <rect class="st1" x="17.12" y="19.1" width="2.35" height="6.04" rx=".36" ry=".36"/>
    <rect class="st1" x="10.53" y="19.1" width="2.35" height="6.04" rx=".36" ry=".36"/>
  </g>
</svg>