<?xml version="1.0" encoding="UTF-8"?>
<svg id="Layer_1" xmlns="http://www.w3.org/2000/svg" version="1.1" viewBox="0 0 800 800">
  <!-- Generator: Adobe Illustrator 30.1.0, SVG Export Plug-In . SVG Version: 2.1.1 Build 136)  -->
  <defs>
    <style>
      .st0 {
        fill: #f9f9f9;
      }

      .st1 {
        fill: #878a90;
      }
    </style>
  </defs>
  <rect class="st1" x="104" y="125" width="592" height="550" rx="80" ry="80"/>
  <g>
    <path class="st0" d="M198.03,260.68h147.58v13.45c0,6.63,5.37,12,12,12h84.78c6.63,0,12-5.37,12-12v-13.45h147.59c7.03,0,12.73-5.7,12.73-12.73s-5.7-12.73-12.73-12.73h-147.59v-13.46c0-6.63-5.37-12-12-12h-84.78c-6.63,0-12,5.37-12,12v13.46h-147.58c-7.03,0-12.73,5.7-12.73,12.73s5.7,12.73,12.73,12.73Z"/>
    <path class="st0" d="M601.98,539.33h-147.59v-13.46c0-6.63-5.37-12-12-12h-84.78c-6.63,0-12,5.37-12,12v13.46h-147.58c-7.03,0-12.73,5.7-12.73,12.73h0c0,7.03,5.7,12.73,12.73,12.73h147.58v13.45c0,6.63,5.37,12,12,12h84.78c6.63,0,12-5.37,12-12v-13.45h147.59c7.03,0,12.73-5.7,12.73-12.73h0c0-7.03-5.7-12.73-12.73-12.73Z"/>
    <polygon class="st0" points="614.71 400 614.71 400 614.71 400 614.71 400"/>
    <path class="st0" d="M601.98,387.27h-147.59v-13.45c0-6.63-5.37-12-12-12h-84.78c-6.63,0-12,5.37-12,12v13.45h-147.58c-7.03,0-12.73,5.7-12.73,12.73s5.7,12.73,12.73,12.73h147.58v13.46c0,6.63,5.37,12,12,12h84.78c6.63,0,12-5.37,12-12v-13.46h147.59c7.03,0,12.73-5.7,12.73-12.73s-5.7-12.73-12.73-12.73Z"/>
    <polygon class="st0" points="185.3 400 185.3 400 185.3 400 185.3 400"/>
  </g>
</svg>