<?xml version="1.0" encoding="UTF-8"?>
<svg id="Layer_1" xmlns="http://www.w3.org/2000/svg" version="1.1" viewBox="0 0 50 50">
  <!-- Generator: Adobe Illustrator 30.1.0, SVG Export Plug-In . SVG Version: 2.1.1 Build 136)  -->
  <defs>
    <style>
      .st0 {
        fill: #bdbdbd;
      }
    </style>
  </defs>
  <path class="st0" d="M12.69,23.18c1-6.79,7.32-11.49,14.11-10.49,2.32.34,4.49,1.33,6.28,2.85l-1.6,1.6c-.54.54-.54,1.41,0,1.94.26.26.61.4.97.4h6.31c.76,0,1.38-.62,1.38-1.38v-6.31c0-.76-.62-1.38-1.38-1.38-.36,0-.71.15-.97.4l-1.79,1.79c-6.82-6.08-17.28-5.48-23.36,1.34-2.15,2.42-3.55,5.41-4.02,8.61-.18,1.13.59,2.2,1.72,2.39.1.01.21.03.31.03,1.04-.01,1.91-.79,2.04-1.82Z"/>
  <path class="st0" d="M39.35,25c-1.04.01-1.91.79-2.05,1.82-1,6.79-7.32,11.49-14.11,10.49-2.32-.34-4.49-1.33-6.27-2.85l1.6-1.6c.54-.54.54-1.41,0-1.95-.26-.26-.61-.4-.97-.4h-6.31c-.76,0-1.38.62-1.38,1.38v6.31c0,.76.62,1.38,1.38,1.38.37,0,.71-.15.97-.4l1.79-1.79c6.82,6.08,17.28,5.48,23.36-1.34,2.15-2.42,3.55-5.42,4.02-8.62.19-1.14-.59-2.21-1.72-2.39-.1-.01-.21-.02-.31-.03h0Z"/>
</svg>