<?xml version="1.0" encoding="UTF-8"?>
<svg id="Layer_1" xmlns="http://www.w3.org/2000/svg" version="1.1" viewBox="0 0 50 50">
  <!-- Generator: Adobe Illustrator 30.1.0, SVG Export Plug-In . SVG Version: 2.1.1 Build 136)  -->
  <defs>
    <style>
      .st0 {
        fill: #d46262;
      }
    </style>
  </defs>
  <path class="st0" d="M25,7.6c-9.61,0-17.4,7.79-17.4,17.4s7.79,17.4,17.4,17.4,17.4-7.79,17.4-17.4S34.61,7.6,25,7.6ZM33.6,30.59c.81.84.81,2.19-.03,3.02-.83.83-2.17.84-3.02.03l-5.57-5.57-5.57,5.57c-.84.81-2.19.81-3.02-.03-.83-.83-.84-2.17-.03-3.02l5.57-5.57-5.57-5.57c-.81-.84-.81-2.19.03-3.02s2.17-.84,3.02-.03l5.57,5.57,5.57-5.57c.84-.84,2.21-.84,3.05,0,.84.84.84,2.21,0,3.05l-5.57,5.57s5.57,5.57,5.57,5.57Z"/>
</svg>