<?xml version="1.0" encoding="UTF-8"?>
<svg id="Layer_1" xmlns="http://www.w3.org/2000/svg" version="1.1" viewBox="0 0 800 800">
  <!-- Generator: Adobe Illustrator 30.1.0, SVG Export Plug-In . SVG Version: 2.1.1 Build 136)  -->
  <defs>
    <style>
      .st0 {
        fill: #878a90;
      }

      .st1 {
        fill: #b15959;
      }
    </style>
  </defs>
  <g id="surface1">
    <path class="st0" d="M355.77,520.33c0-71.9,55.13-130.51,123.06-130.51,27.38,0,52.96,9.38,73.64,25.4,20.92-16.02,46.5-25.4,74.07-25.4s53.21,9.88,73.88,26.14v-99.97H109.57v221.6c0,67.93,55.13,123.06,123.06,123.06h188.88c-34.46-40.11-65.76-90.59-65.76-140.33h.02Z"/>
    <path class="st0" d="M577.36,168.28h-160.82c-3.66,0-7.64-.99-11.05-2.73l-77.56-38.62c-10.12-5.21-21.67-7.88-32.97-7.88h-62.34c-67.93,0-123.06,55.13-123.06,123.06v24.65h588.38c-11.3-56.13-61.03-98.48-120.59-98.48h.01Z"/>
    <path class="st1" d="M700.43,520.33c0,64.02-83.2,143.3-124.81,176.52-13.28,10.8-32.53,10.8-45.83,0-41.61-33.28-124.81-112.76-124.81-176.52,0-44.83,32.97-81.28,73.88-81.28,35.89,0,66.93,28.31,73.58,65.76,6.65-37.44,38.19-65.76,74.14-65.76,40.86,0,73.83,36.45,73.83,81.28h.02,0Z"/>
  </g>
</svg>