<?xml version="1.0" encoding="UTF-8"?>
<svg id="Layer_1" xmlns="http://www.w3.org/2000/svg" version="1.1" viewBox="0 0 50 50">
  <!-- Generator: Adobe Illustrator 30.1.0, SVG Export Plug-In . SVG Version: 2.1.1 Build 136)  -->
  <defs>
    <style>
      .st0 {
        fill: #81bda4;
      }

      .st1 {
        fill: #577e6e;
      }
    </style>
  </defs>
  <g id="surface2">
    <path class="st0" d="M7.31,14.16h8.21c.1,0,.17.07.17.16v7.38c0,.09-.08.17-.17.17H7.31c-.09,0-.17-.08-.17-.17v-7.38c0-.09.08-.16.17-.16Z"/>
    <path class="st1" d="M7.28,28.13h8.22c.09,0,.17.07.17.17v7.38c0,.09-.08.17-.17.17H7.28c-.09,0-.17-.07-.17-.17v-7.38c0-.09.08-.17.17-.17Z"/>
    <path class="st0" d="M34.5,14.16h8.22c.09,0,.17.07.17.16v7.38c0,.09-.08.16-.17.16h-8.22c-.09,0-.17-.07-.17-.16v-7.38c0-.09.08-.16.17-.16Z"/>
    <path class="st1" d="M34.48,28.13h8.22c.09,0,.17.07.17.17v7.38c0,.09-.08.17-.17.17h-8.22c-.09,0-.17-.07-.17-.17v-7.38c0-.09.08-.17.17-.17Z"/>
    <path class="st1" d="M20.89,14.16h8.21c.1,0,.17.07.17.16v7.38c0,.09-.08.17-.17.17h-8.21c-.09,0-.17-.08-.17-.17v-7.38c0-.09.08-.16.17-.16Z"/>
    <path class="st0" d="M20.89,28.13h8.22c.09,0,.17.07.17.17v7.38c0,.09-.08.17-.17.17h-8.22c-.09,0-.17-.07-.17-.17v-7.38c0-.09.08-.17.17-.17Z"/>
  </g>
</svg>