<?xml version="1.0" encoding="UTF-8"?>
<svg id="Layer_1" xmlns="http://www.w3.org/2000/svg" version="1.1" viewBox="0 0 50 50">
  <!-- Generator: Adobe Illustrator 30.3.0, SVG Export Plug-In . SVG Version: 2.1.3 Build 182)  -->
  <defs>
    <style>
      .st0 {
        fill: #8aa8b2;
      }

      .st1 {
        fill: none;
        stroke: #2c4249;
        stroke-miterlimit: 10;
        stroke-width: 2px;
      }

      .st2 {
        fill: #2c4249;
      }
    </style>
  </defs>
  <g>
    <g>
      <rect class="st0" x="7.1" y="29.64" width="35.79" height="6.59"/>
      <path class="st2" d="M41.9,30.64v4.59H8.1v-4.59h33.8M43.9,28.64H6.1v8.59h37.8v-8.59h0Z"/>
    </g>
    <line class="st1" x1="13.29" y1="29.94" x2="13.29" y2="35.52"/>
    <line class="st1" x1="36.71" y1="29.94" x2="36.71" y2="35.52"/>
    <g>
      <rect class="st0" x="19.5" y="27.44" width="10.99" height="10.99"/>
      <path class="st2" d="M29.5,28.44v8.99h-8.99v-8.99h8.99M31.5,26.44h-12.99v12.99h12.99v-12.99h0Z"/>
    </g>
  </g>
  <g>
    <path class="st0" d="M35.4,24.08c-.63,0-1.22-.25-1.67-.7-.91-.91-.91-2.4,0-3.32l.64-.63-3.07-.03c-1.28,0-2.33-1.05-2.33-2.35s1.05-2.35,2.35-2.35l3.07.02-.62-.62c-.44-.44-.69-1.04-.69-1.67,0-.63.25-1.22.7-1.66.44-.44,1.03-.68,1.66-.68s1.22.25,1.66.69l3.7,3.74.32.29c.59.6.93,1.44.92,2.31,0,.87-.35,1.7-.94,2.29l-4.04,3.98c-.44.44-1.03.69-1.66.69h0Z"/>
    <path class="st2" d="M35.44,11.09c.35,0,.69.13.96.4l3.98,4.02h.03c.85.86.83,2.35-.02,3.19l-4.03,3.98c-.27.27-.61.4-.96.4s-.69-.13-.95-.4c-.53-.53-.53-1.39,0-1.91l2.35-2.32-5.48-.05c-.73,0-1.34-.61-1.34-1.35s.6-1.35,1.35-1.35l5.48.05-2.32-2.35c-.53-.53-.53-1.4,0-1.91.27-.27.61-.4.96-.4M35.44,9.09c-.89,0-1.74.35-2.37.98-.63.62-.98,1.46-.98,2.35,0,.45.08.88.25,1.28h-1c-1.86,0-3.37,1.49-3.37,3.34s1.5,3.35,3.34,3.35h1c-.52,1.23-.28,2.7.71,3.69.62.63,1.46.98,2.37.98s1.74-.35,2.37-.98l4.02-3.97c.78-.77,1.23-1.87,1.24-3,0-1.14-.43-2.24-1.21-3.02l-.59-.59h-.03l-3.39-3.43c-.64-.64-1.48-.99-2.38-.99h0Z"/>
  </g>
  <g>
    <path class="st0" d="M14.56,24.08c-.63,0-1.22-.25-1.66-.69l-3.69-3.73-.32-.3c-1.24-1.25-1.23-3.36.03-4.6l4.04-3.98c.44-.44,1.03-.69,1.66-.69s1.23.25,1.67.7c.91.91.91,2.4,0,3.32l-.64.63,3.07.03c1.28,0,2.33,1.05,2.33,2.35s-1.05,2.35-2.35,2.35l-3.07-.03.62.62c.44.44.69,1.04.69,1.67,0,.63-.25,1.22-.7,1.66-.44.44-1.03.68-1.66.68h0Z"/>
    <path class="st2" d="M14.6,11.09c.35,0,.69.13.95.4.53.53.53,1.39,0,1.91l-2.35,2.32,5.48.05c.73,0,1.34.61,1.34,1.35s-.6,1.35-1.35,1.35l-5.48-.05,2.32,2.35c.53.53.53,1.4,0,1.91-.27.27-.61.4-.96.4s-.69-.13-.96-.4l-3.98-4.02h-.03c-.85-.86-.83-2.35.02-3.19l4.03-3.98c.27-.27.61-.4.96-.4M14.6,9.09c-.9,0-1.74.35-2.37.98l-4.02,3.97c-.78.77-1.23,1.87-1.24,3,0,1.14.43,2.24,1.21,3.02l.59.59h.03l3.39,3.43c.64.64,1.48.99,2.38.99s1.74-.35,2.37-.98c.63-.62.98-1.46.98-2.35,0-.45-.08-.88-.25-1.28h1c1.86,0,3.37-1.49,3.37-3.34s-1.5-3.35-3.34-3.35h-1c.17-.42.27-.86.27-1.31,0-.9-.35-1.74-.98-2.38-.62-.63-1.46-.98-2.37-.98h0Z"/>
  </g>
</svg>