<?xml version="1.0" encoding="UTF-8"?>
<svg id="Layer_1" xmlns="http://www.w3.org/2000/svg" version="1.1" viewBox="0 0 50 50">
  <!-- Generator: Adobe Illustrator 30.1.0, SVG Export Plug-In . SVG Version: 2.1.1 Build 136)  -->
  <defs>
    <style>
      .st0 {
        fill: #d86552;
      }

      .st1 {
        fill: #3a3a3a;
      }
    </style>
  </defs>
  <path class="st0" d="M10.5,42.5c-2.1,0-3.8-1.6-3.8-3.8s1.6-3.8,3.8-3.8h18.7c3.4,0,6.2-3,6.2-6.8V11.2c0-2.1,1.6-3.8,3.8-3.8s3.8,1.6,3.8,3.8v17c0,7.9-6.2,14.2-13.8,14.2H10.5Z"/>
  <path class="st1" d="M39.2,8.7c1.4,0,2.5,1.1,2.5,2.5v17c0,7.2-5.6,13-12.5,13H10.5c-1.4,0-2.5-1.1-2.5-2.5s1.1-2.5,2.5-2.5h18.7c4.1,0,7.5-3.6,7.5-8V11.2c0-1.4,1.1-2.5,2.5-2.5M39.2,6.2c-2.8,0-5,2.2-5,5v17c0,3-2.3,5.5-5,5.5H10.5c-2.8,0-5,2.2-5,5s2.2,5,5,5h18.7c8.3,0,15-7,15-15.5V11.2c0-2.8-2.2-5-5-5h0Z"/>
</svg>