<?xml version="1.0" encoding="UTF-8"?>
<svg id="Layer_1" xmlns="http://www.w3.org/2000/svg" version="1.1" viewBox="0 0 50 50">
  <!-- Generator: Adobe Illustrator 30.1.0, SVG Export Plug-In . SVG Version: 2.1.1 Build 136)  -->
  <defs>
    <style>
      .st0 {
        fill: #d86552;
      }

      .st1 {
        fill: #3a3a3a;
      }
    </style>
  </defs>
  <g>
    <path class="st0" d="M25,41.5c-1.5,0-2.9-.9-3.5-2.4-.3-.9-.4-1.9-.6-3.3v-.7c-.7-6.5-1.7-17.3-12.7-20.6-2-.6-3.1-2.7-2.5-4.7.4-1.6,1.9-2.7,3.5-2.7.4,0,.7,0,1.1.2,6.7,2.1,11.6,6.4,14.5,12.7,3-6.4,8.1-10.7,14.9-12.6h.2s.2,0,.2,0c0,0,0,0,.1,0,.2,0,.4,0,.6,0,1.7,0,3.2,1.1,3.6,2.7.6,1.9-.5,4-2.5,4.6-11.5,3.3-12.4,14.6-12.9,20.7v.2c-.1,1.5-.2,2.5-.5,3.3-.5,1.5-1.8,2.6-3.4,2.7h0s0,0,0,0Z"/>
    <path class="st1" d="M9.3,8.3c.2,0,.5,0,.6,0,8.7,2.7,12.9,8.9,14.9,14.9,2.1-6,6.3-12.2,15.3-14.8.2,0,.5,0,.7,0,1.1,0,2.1.7,2.4,1.8.4,1.3-.4,2.7-1.7,3.1-12.4,3.6-13.3,16-13.8,22-.1,1.4-.2,2.4-.4,3.1-.3,1-1.2,1.7-2.3,1.8-1,0-1.9-.6-2.3-1.6-.3-.8-.4-2-.6-3.7-.6-6.3-1.7-18.1-13.5-21.7-1.3-.4-2.1-1.8-1.7-3.1.3-1.1,1.3-1.8,2.4-1.8M9.3,5.8h0c-2.2,0-4.1,1.5-4.7,3.6-.8,2.6.7,5.4,3.4,6.2,10.2,3.1,11.2,13.4,11.7,19.5h0s0,0,0,0v.7c.3,1.5.4,2.6.7,3.6h0s0,0,0,0c.8,1.9,2.6,3.2,4.6,3.2h.2c2.1-.2,3.9-1.6,4.5-3.6.3-.9.4-2,.5-3.6v-.2c.5-5.8,1.4-16.5,12-19.6,2.7-.8,4.2-3.6,3.4-6.2-.6-2.1-2.6-3.6-4.8-3.6s-.6,0-.8,0h0s-.2,0-.2,0h-.3c-6.4,2-11.3,5.7-14.6,11.3-3.1-5.4-7.9-9.3-14.1-11.2-.6-.2-1.2-.2-1.5-.2h0Z"/>
  </g>
  <g>
    <path class="st0" d="M9.2,8.3s0,0,0,0c0,0,0,0,0,0h0Z"/>
    <path class="st1" d="M9.3,8.3s0,0,0,0c0,0,0,0,0,0h0"/>
  </g>
</svg>