<?xml version="1.0" encoding="UTF-8"?>
<svg id="Layer_1" xmlns="http://www.w3.org/2000/svg" version="1.1" viewBox="0 0 50 50">
  <!-- Generator: Adobe Illustrator 30.1.0, SVG Export Plug-In . SVG Version: 2.1.1 Build 136)  -->
  <defs>
    <style>
      .st0 {
        fill: #bcbcbc;
      }

      .st1 {
        fill: #353535;
      }

      .st2 {
        fill: #e8e8e8;
      }
    </style>
  </defs>
  <g id="TKM_Logo">
    <path class="st0" d="M41.9,3.7H8.2c-2.9,0-5.3,2.4-5.3,5.3v25.9l3.2,5.5h37.8l3.3-5.7V9c0-2.9-2.4-5.3-5.3-5.3Z"/>
    <path class="st1" d="M31,32.3h9.1v-4.3h.6c3,0,5.4-2.8,5.4-6s-2.4-6-5.4-6h-.6v-4.3h-11.4c0-2.1-1.8-3.9-3.9-3.9s-3.9,1.8-3.9,3.9h-11.4v4.3h-.6c-3,0-5.4,2.8-5.4,6s2.4,6,5.4,6h.6v4.3h9.1v2.3H2.8v6.4c0,2.9,2.4,5.3,5.3,5.3h33.8c2.9,0,5.3-2.4,5.3-5.3v-6.4h-16.2v-2.3ZM42.2,38h1.9v1.6h-1.9v-1.6ZM38.9,38h1.9v1.6h-1.9v-1.6ZM35.5,38h1.9v1.6h-1.9v-1.6Z"/>
    <g>
      <circle class="st2" cx="17.8" cy="22.6" r="4.5"/>
      <circle class="st2" cx="32.1" cy="22.6" r="4.5"/>
    </g>
  </g>
</svg>