<?xml version="1.0" encoding="UTF-8"?>
<svg id="Layer_1" xmlns="http://www.w3.org/2000/svg" version="1.1" viewBox="0 0 50 50">
  <!-- Generator: Adobe Illustrator 30.1.0, SVG Export Plug-In . SVG Version: 2.1.1 Build 136)  -->
  <defs>
    <style>
      .st0 {
        fill: #e5cfc1;
      }

      .st1 {
        fill: #bc9682;
      }

      .st2 {
        fill: #7c6657;
      }
    </style>
  </defs>
  <g id="surface1">
    <path class="st2" d="M19.52,7.63h17.91c3.6,0,6.52,3.03,6.52,6.76v14.36c0,3.73-2.92,6.76-6.52,6.76h-17.91c-3.6,0-6.52-3.02-6.52-6.76v-14.36c0-3.73,2.92-6.76,6.52-6.76Z"/>
    <path class="st0" d="M12.58,14.49h17.91c3.6,0,6.52,3.03,6.52,6.76v14.36c0,3.73-2.92,6.76-6.52,6.76H12.58c-3.6,0-6.52-3.02-6.52-6.76v-14.36c0-3.73,2.92-6.76,6.52-6.76Z"/>
    <path class="st1" d="M30.48,14.49H13v14.27c0,3.73,2.92,6.76,6.52,6.76h17.49v-14.26c0-3.73-2.92-6.76-6.52-6.76Z"/>
  </g>
</svg>