<?xml version="1.0" encoding="UTF-8"?>
<svg id="Layer_1" xmlns="http://www.w3.org/2000/svg" version="1.1" viewBox="0 0 30 30">
  <!-- Generator: Adobe Illustrator 30.1.0, SVG Export Plug-In . SVG Version: 2.1.1 Build 136)  -->
  <defs>
    <style>
      .st0 {
        fill: #68a48c;
      }
    </style>
  </defs>
  <path class="st0" d="M17.79,8.38c.14,0,.28,0,.43.03.43.06.85.18,1.27.3.71.21,1.41.48,2.08.79,1.64.76,3.73,1.88,4.53,3.66.13.29.22.6.24.92.38,5.82-22.64,10.06-22.98,3.97-.14-2.45,1.09-4.49,3.04-5.89.35-.25.73-.44,1-.78.15-.19.3-.37.43-.57.11-.17.19-.44.34-.57.16-.14.45-.23.64-.33.42-.22.83-.44,1.25-.65.35-.18.63.14.94.21.37.09.9-.02,1.24-.18.32-.15.51-.42.78-.63.17-.13.35-.24.54-.33.31-.14.64-.22.99-.2.32.02.6.13.88.26.39.19.82.26,1.24.16s.77-.18,1.15-.19Z"/>
</svg>