<?xml version="1.0" encoding="UTF-8"?>
<svg id="Layer_1" xmlns="http://www.w3.org/2000/svg" version="1.1" viewBox="0 0 30 30">
  <!-- Generator: Adobe Illustrator 30.1.0, SVG Export Plug-In . SVG Version: 2.1.1 Build 136)  -->
  <defs>
    <style>
      .st0 {
        fill: #68a48c;
      }

      .st1 {
        fill: #f0f0f0;
      }
    </style>
  </defs>
  <path class="st1" d="M17.79,8.38h.15c.34,0,.69.11,1.01.19.94.24,1.85.58,2.72.99,1.77.82,4.5,2.29,4.65,4.53.37,5.81-22.62,10.05-22.97,3.97-.09-1.52.34-2.99,1.26-4.2.4-.53.87-.98,1.39-1.4s1.17-.71,1.65-1.17c.06-.06.13-.13.18-.2.14-.17.41-.57.25-.78.59-.41,1.31-.7,1.96-1.03.26-.14.61.03.84.17.14.08.14.13.33.15.21.03.43.03.64,0,.43-.07.55-.34.82-.61.2-.19.46-.35.71-.47.39-.19.82-.31,1.26-.26.45.05.73.27,1.11.45.35.16.85.05,1.19-.05.28-.07.56-.21.86-.25l.03-.02h-.04Z"/>
  <path class="st0" d="M17.79,8.37c1.89.05,8.33,2.57,8.53,5.71.37,5.81-22.62,10.05-22.97,3.97-.14-2.45,1.09-4.49,3.04-5.89.35-.25.73-.44,1-.77.15-.18.3-.37.43-.57.12-.17.19-.44.34-.57.15-.15.45-.24.64-.34.42-.22.83-.44,1.25-.66.61-.32,1.91.97,2.44,1.63l3.59,5.28c1.5-4.23-2.1-6.55-3.57-7.08,3.8-3.79,6.08,4.93,8.34,5.28.67-2.98-1.62-3.82-3.07-6.01v.02h.01Z"/>
</svg>