<?xml version="1.0" encoding="UTF-8"?>
<svg id="Layer_1" xmlns="http://www.w3.org/2000/svg" version="1.1" viewBox="0 0 30 30">
  <!-- Generator: Adobe Illustrator 30.1.0, SVG Export Plug-In . SVG Version: 2.1.1 Build 136)  -->
  <defs>
    <style>
      .st0 {
        fill: #68a48c;
      }

      .st1 {
        fill: #f0f0f0;
      }
    </style>
  </defs>
  <path class="st1" d="M15.29,10.13s.05.07.07.11c.55.88,1,1.81,1.34,2.79.2.57.36,1.16.34,1.76s-.25,1.22-.71,1.6c-.53.44-1.31.5-1.95.26s-1.17-.73-1.55-1.3-.65-1.21-.91-1.85c-.17-.41-.34-.83-.51-1.24-.2-.49-.4-.99-.57-1.49-.1-.32-.21-.68-.15-1.01.08-.49.2-.19.53-.16.21.03.43.03.64,0,.43-.07.55-.34.82-.61.2-.19.46-.35.71-.47.58-.28.7-.03,1.07.44.3.38.58.77.84,1.18Z"/>
  <path class="st0" d="M17.79,8.38c.14,0,.28,0,.43.03.35.05.68.14,1.02.23.88.25,1.75.59,2.58.98,1.59.76,3.51,1.85,4.27,3.54.13.29.22.6.24.92.37,5.81-22.62,10.05-22.97,3.97-.14-2.45,1.09-4.49,3.04-5.89.35-.25.73-.44,1-.77.15-.18.3-.37.43-.57.12-.17.19-.44.34-.57.15-.15.45-.24.64-.34.42-.22.83-.44,1.25-.66.61-.32,1.91.97,2.44,1.63l3.59,5.28c1.5-4.23-2.1-6.55-3.57-7.08.03,0,.43-.38.49-.43.17-.13.35-.24.54-.33.31-.15.65-.22.98-.2s.63.14.92.28c.41.21.8.24,1.26.14.39-.09.73-.17,1.1-.17v.02h-.02Z"/>
</svg>