<?xml version="1.0" encoding="UTF-8"?>
<svg id="Layer_1" xmlns="http://www.w3.org/2000/svg" version="1.1" viewBox="0 0 30 30">
  <!-- Generator: Adobe Illustrator 30.1.0, SVG Export Plug-In . SVG Version: 2.1.1 Build 136)  -->
  <defs>
    <style>
      .st0 {
        fill: #68a48c;
      }

      .st1 {
        fill: #f0f0f0;
      }
    </style>
  </defs>
  <path class="st1" d="M17.81,8.45c.38-.07.75.04,1.12.14.6.17,1.04.58,1.44,1.05.98,1.14,2.02,3.21.93,4.62-.2.25-.45.46-.71.64-.34.24-.69.46-1.06.65-.82.42-1.85.95-2.75,1.14-.47.1-.75.43-1.18.64-.4.2-.83.32-1.27.38-.75.11-1.52.05-2.27-.06-1.37-.21-2.78-.74-3.49-2.01-.45-.82-.82-1.67-1.24-2.51-.16-.33-.27-.68-.27-1.05,0-.56.26-.43.61-.77.06-.06.13-.13.18-.2.14-.17.41-.57.25-.78-.02-.02,1.02-.58,1.12-.62.38-.16.77-.18,1.18-.17.47.01,1,.1,1.47.04.4-.05.56-.31.83-.58.2-.19.46-.35.71-.47.39-.19.82-.31,1.26-.26.45.05.73.27,1.11.45.35.16.85.05,1.19-.05.31-.08.59-.16.87-.21Z"/>
  <path class="st0" d="M17.79,8.37c1.89.05,8.33,2.57,8.53,5.71.37,5.81-22.62,10.05-22.97,3.97-.19-3.34,1.91-5.25,3.86-6.43l4.47,5.2c.55-3.6-1.65-4.43-3.58-6.54l1.95-1.02c.61-.32,1.91.97,2.44,1.63l3.59,5.28c1.5-4.23-2.1-6.55-3.57-7.08,3.8-3.79,6.08,4.93,8.34,5.28.67-2.98-1.62-3.82-3.07-6.01v.02h.01Z"/>
</svg>