<?xml version="1.0" encoding="UTF-8"?>
<svg id="Layer_1" xmlns="http://www.w3.org/2000/svg" version="1.1" viewBox="0 0 30 30">
  <!-- Generator: Adobe Illustrator 30.1.0, SVG Export Plug-In . SVG Version: 2.1.1 Build 136)  -->
  <defs>
    <style>
      .st0 {
        fill: #8ad25b;
      }

      .st1 {
        fill: #bdbdbd;
      }
    </style>
  </defs>
  <path class="st1" d="M24.26,15.02c-.07,0-.13-.01-.2-.02-.66,0-1.21.5-1.29,1.15-.63,4.29-4.62,7.26-8.91,6.63-1.47-.22-2.84-.84-3.96-1.8l1.01-1.01c.34-.34.34-.89,0-1.23-.16-.16-.38-.25-.61-.25h-3.99c-.48,0-.87.39-.87.87v3.99c0,.48.39.87.87.87.23,0,.45-.09.61-.25l1.13-1.13c4.31,3.84,10.91,3.46,14.76-.84,1.36-1.53,2.24-3.42,2.54-5.44.12-.72-.37-1.39-1.09-1.51Z"/>
  <path class="st1" d="M23.69,5.8c-.23,0-.45.09-.61.25l-1.13,1.13c-4.31-3.84-10.91-3.46-14.76.85-1.36,1.53-2.24,3.42-2.54,5.44-.12.72.37,1.39,1.09,1.51.06,0,.13.02.2.02.65,0,1.21-.5,1.29-1.15.63-4.29,4.62-7.26,8.91-6.63,1.47.21,2.84.84,3.96,1.8l-1.01,1.01c-.34.34-.34.89,0,1.23.16.16.38.25.61.25h3.99c.48,0,.87-.39.87-.87v-3.98c0-.48-.39-.87-.87-.87Z"/>
  <path class="st0" d="M29.11,24.69c0,2.55-2.09,4.63-4.67,4.63s-4.67-2.07-4.67-4.63,2.09-4.63,4.67-4.63,4.67,2.07,4.67,4.63Z"/>
</svg>