<?xml version="1.0" encoding="UTF-8"?>
<svg id="Layer_1" xmlns="http://www.w3.org/2000/svg" version="1.1" viewBox="0 0 50 50">
  <!-- Generator: Adobe Illustrator 30.1.0, SVG Export Plug-In . SVG Version: 2.1.1 Build 136)  -->
  <defs>
    <style>
      .st0 {
        fill: #558a74;
      }
    </style>
  </defs>
  <g id="surface1">
    <path class="st0" d="M29.3,10.67c0,2.36-1.91,4.28-4.28,4.28s-4.28-1.91-4.28-4.28,1.91-4.28,4.28-4.28,4.28,1.91,4.28,4.28Z"/>
    <path class="st0" d="M35.25,28.14c-.52-4.44-1.29-8.04-4.6-11.06-1.88-1.37-3.73-1.34-5.31-1.38h0s-.05,0-.07,0c-.09,0-.18,0-.27,0h0c-1.65-.01-3.63-.08-5.65,1.39-3.31,3.02-4.08,6.62-4.6,11.06-.27,2.26,3.27,2.72,3.52.49.31-2.65.76-5.31,2.07-7.58v2.07l-.03,11.8v6.79c0,1.05.77,1.9,1.85,1.9s1.95-.85,1.95-1.9v-10.97h1.78v10.97c0,1.05.87,1.9,1.95,1.9s1.85-.85,1.85-1.9v-6.79l-.03-11.8v-2.07c1.31,2.27,1.76,4.93,2.07,7.58.26,2.23,3.79,1.76,3.52-.49Z"/>
  </g>
</svg>