<?xml version="1.0" encoding="UTF-8"?>
<svg id="Layer_1" xmlns="http://www.w3.org/2000/svg" version="1.1" viewBox="0 0 50 50">
  <!-- Generator: Adobe Illustrator 30.1.0, SVG Export Plug-In . SVG Version: 2.1.1 Build 136)  -->
  <defs>
    <style>
      .st0 {
        fill: #548a73;
      }
    </style>
  </defs>
  <path class="st0" d="M41.65,25.8c0,1.31-1.06,2.38-2.38,2.38h-4.55c-1.95,0-3.75-1.03-4.76-2.7l-1.94-3.23-2.84,6.92,4.14,2.36c1.74.99,2.81,2.83,2.81,4.83v5.29c0,1.31-1.07,2.37-2.38,2.37s-2.37-1.06-2.38-2.37v-5.29c0-.28-.15-.55-.4-.69l-6.47-3.69c-2.33-1.42-3.29-4.32-2.26-6.85l2-4.89h-2.8c-.3,0-.58.17-.71.44l-2.29,4.59c-.59,1.17-2.01,1.64-3.19,1.05-1.17-.58-1.65-2.01-1.07-3.18l2.29-4.59c.94-1.88,2.86-3.08,4.97-3.07h8.92c1.95,0,3.75,1.03,4.76,2.7l2.92,4.85c.15.24.41.38.68.38h4.55c1.31,0,2.38,1.06,2.38,2.38h0ZM17.95,32.7c-1.22-.49-2.61.11-3.09,1.32-.12.3-.41.5-.74.5h-3.4c-1.31,0-2.37,1.07-2.37,2.38s1.06,2.37,2.37,2.38h3.4c2.27,0,4.32-1.38,5.15-3.49.49-1.22-.11-2.61-1.32-3.09h0ZM28.16,13.91c2.19,0,3.97-1.77,3.97-3.97s-1.78-3.96-3.97-3.96-3.96,1.77-3.96,3.96,1.77,3.97,3.96,3.97Z"/>
</svg>