<?xml version="1.0" encoding="UTF-8"?>
<svg id="Layer_1" xmlns="http://www.w3.org/2000/svg" version="1.1" viewBox="0 0 50 50">
  <!-- Generator: Adobe Illustrator 30.1.0, SVG Export Plug-In . SVG Version: 2.1.1 Build 136)  -->
  <defs>
    <style>
      .st0 {
        fill: #558a74;
      }
    </style>
  </defs>
  <g id="surface1">
    <path class="st0" d="M28.36,8.34c0,1.85-1.5,3.36-3.36,3.36s-3.36-1.5-3.36-3.36,1.5-3.36,3.36-3.36,3.36,1.5,3.36,3.36Z"/>
    <path class="st0" d="M35.36,26.51c-.95-10.64-6.02-12.76-6.02-12.76,0,0-4.9-2.95-10.06.81-3.35,3.05-4.12,7.69-4.65,12.18-.27,2.28,3.3,2.25,3.56,0,.31-2.68.77-5.37,2.09-7.66v2.59s-.03,12.43-.03,12.43v9.86c0,1.06.78,1.92,1.87,1.92s1.97-.86,1.97-1.92v-14.09h1.75v14.14c0,2.3,3.56,2.3,3.56,0v-9.91l.15-12.45c0-1.19,0-2.25,0-2.99,1.43,2.33,1.9,5.1,2.22,7.86.27,2.26,3.84,2.28,3.57,0Z"/>
  </g>
</svg>