<?xml version="1.0" encoding="UTF-8"?>
<svg id="Layer_1" xmlns="http://www.w3.org/2000/svg" version="1.1" viewBox="0 0 50 50">
  <!-- Generator: Adobe Illustrator 30.3.0, SVG Export Plug-In . SVG Version: 2.1.3 Build 182)  -->
  <defs>
    <style>
      .st0 {
        fill: #8aa8b2;
      }

      .st1 {
        fill: none;
        stroke: #eaeaea;
        stroke-linecap: round;
        stroke-linejoin: round;
        stroke-width: 1.77px;
      }

      .st2 {
        fill: #2c4249;
      }

      .st3 {
        fill: #eaeaea;
      }

      .st4 {
        fill: #3b575e;
      }
    </style>
  </defs>
  <g id="surface2">
    <g>
      <rect class="st4" x="5.93" y="9.79" width="38.15" height="30.44" rx=".9" ry=".9"/>
      <path class="st2" d="M43.18,10.63s.05.03.05.05v28.64s-.03.05-.05.05H6.83s-.05-.03-.05-.05V10.69s.03-.05.05-.05h36.35M43.18,8.93H6.83c-.96,0-1.75.79-1.75,1.75v28.64c0,.96.79,1.75,1.75,1.75h36.35c.96,0,1.75-.79,1.75-1.75V10.69c0-.96-.79-1.75-1.75-1.75h0Z"/>
    </g>
    <path class="st0" d="M8.67,16.74h32.65c.67,0,1.22.54,1.22,1.21v19.91c0,.67-.54,1.21-1.22,1.21H8.67c-.67,0-1.21-.54-1.21-1.21v-19.91c0-.67.54-1.21,1.21-1.21Z"/>
    <path class="st1" d="M12.06,21.33s1.26,6.23,6.79,6.12c5.55-.13,5.84-7.55,11.9-7.51,6.53.11,7.83,7.43,7.83,7.43"/>
    <path class="st3" d="M39.97,11.27c.56,0,1.02.45,1.02,1.02s-.46,1.02-1.02,1.02-1.03-.45-1.03-1.02.46-1.02,1.03-1.02Z"/>
    <path class="st3" d="M36.2,11.27c.57,0,1.03.45,1.03,1.02s-.46,1.02-1.03,1.02-1.02-.45-1.02-1.02.46-1.02,1.02-1.02Z"/>
    <path class="st3" d="M32.06,11.27c.57,0,1.03.45,1.03,1.02s-.46,1.02-1.03,1.02-1.02-.45-1.02-1.02.46-1.02,1.02-1.02Z"/>
    <path class="st1" d="M12.06,29.2s1.26,6.23,6.79,6.12c5.55-.13,5.84-7.55,11.9-7.51,6.53.11,7.83,7.43,7.83,7.43"/>
  </g>
</svg>