<?xml version="1.0" encoding="UTF-8"?>
<svg id="Layer_1" xmlns="http://www.w3.org/2000/svg" version="1.1" viewBox="0 0 50 50">
  <!-- Generator: Adobe Illustrator 30.3.0, SVG Export Plug-In . SVG Version: 2.1.3 Build 182)  -->
  <defs>
    <style>
      .st0 {
        fill: #68a48c;
      }

      .st1 {
        fill: none;
        stroke: #f0f0f0;
        stroke-linecap: round;
        stroke-miterlimit: 10;
        stroke-width: 3px;
      }
    </style>
  </defs>
  <path class="st0" d="M28.75,40.96c-.18,1.08-1.06,1.84-2.14,1.87h-3.14c-1.1.02-2.02-.74-2.22-1.81l-.42-2.54c-.83-.26-1.59-.57-2.35-.96l-2.06,1.46c-.86.64-2.02.57-2.82-.15l-2.35-2.35c-.7-.79-.77-1.92-.16-2.78l1.46-2.03c-.41-.78-.74-1.57-1.02-2.42l-2.54-.43c-1.07-.19-1.83-1.08-1.84-2.17v-3.17c.02-1.08.79-1.97,1.86-2.15l2.46-.42c.26-.85.57-1.64.99-2.43l-1.53-2.16c-.63-.89-.46-2.09.32-2.83l2.23-2.23c.75-.69,1.87-.78,2.72-.22l2.11,1.52c.79-.42,1.58-.76,2.42-1.02l.43-2.51c.18-1.1,1.12-1.9,2.25-1.86h3.02c1.09-.03,2.02.73,2.23,1.8l.42,2.51c.88.27,1.7.61,2.52,1.04l1.98-1.41c.9-.7,2.16-.62,2.95.2l2.25,2.25c.74.8.79,1.98.13,2.85l-1.43,2c.43.8.74,1.58,1.01,2.43l2.57.44c1.02.21,1.74,1.07,1.76,2.12v3.22c-.03,1.05-.76,1.92-1.79,2.13l-2.55.43c-.27.84-.59,1.64-1.01,2.43l1.42,1.99c.66.86.62,2.02-.1,2.84l-2.35,2.35c-.77.7-1.89.8-2.76.22l-2.1-1.5c-.78.4-1.57.73-2.43,1l-.42,2.48Z"/>
  <g>
    <line class="st1" x1="32.4" y1="19.07" x2="31.21" y2="23.89"/>
    <line class="st1" x1="26.32" y1="22.73" x2="31.14" y2="23.93"/>
    <path class="st1" d="M30.49,22.75c-.91-2.57-2.89-4.38-5.77-4.38-3.66,0-6.63,2.97-6.63,6.63s2.97,6.63,6.63,6.63c2.69,0,4.81-1.19,5.85-3.49"/>
  </g>
</svg>