<?xml version="1.0" encoding="UTF-8"?>
<svg id="Layer_1" xmlns="http://www.w3.org/2000/svg" version="1.1" viewBox="0 0 50 50">
  <!-- Generator: Adobe Illustrator 30.1.0, SVG Export Plug-In . SVG Version: 2.1.1 Build 136)  -->
  <defs>
    <style>
      .st0 {
        fill: #dbdbdb;
      }

      .st1 {
        fill: #b46060;
      }
    </style>
  </defs>
  <path class="st1" d="M22.4,8.06c-.71,0-1.3.58-1.3,1.3v.65h-7.8c-.71,0-1.3.58-1.3,1.3s.58,1.3,1.3,1.3h23.39c.71,0,1.3-.58,1.3-1.3s-.58-1.3-1.3-1.3h-7.8v-.65c0-.71-.58-1.3-1.3-1.3h-5.2,0ZM13.95,13.91v18.2c0,2.15,1.75,3.9,3.9,3.9h14.29c2.15,0,3.9-1.75,3.9-3.9V13.91H13.95ZM18.83,16.5c.54,0,.98.44.98.98v13.65c0,.54-.44.98-.98.98s-.98-.44-.98-.98v-13.65c0-.54.44-.98.98-.98ZM25,16.5c.71,0,1.3.58,1.3,1.3v13c0,.71-.58,1.3-1.3,1.3s-1.3-.58-1.3-1.3v-13c0-.71.58-1.3,1.3-1.3ZM31.17,16.5c.54,0,.98.44.98.98v13.65c0,.54-.44.98-.98.98s-.98-.44-.98-.98v-13.65c0-.54.44-.98.98-.98Z"/>
  <g>
    <rect class="st0" x="11.45" y="38.17" width="6.24" height="6.24" rx=".36" ry=".36"/>
    <rect class="st0" x="21.87" y="38.17" width="6.24" height="6.24" rx=".36" ry=".36"/>
    <rect class="st0" x="32.3" y="38.17" width="6.24" height="6.24" rx=".36" ry=".36"/>
  </g>
</svg>