<?xml version="1.0" encoding="UTF-8"?>
<svg id="Layer_1" xmlns="http://www.w3.org/2000/svg" version="1.1" viewBox="0 0 50 50">
  <!-- Generator: Adobe Illustrator 30.1.0, SVG Export Plug-In . SVG Version: 2.1.1 Build 136)  -->
  <defs>
    <style>
      .st0 {
        fill: #656fba;
      }
    </style>
  </defs>
  <path class="st0" d="M38.43,13.29c-2.5-1.1-5.18-1.9-7.98-2.36-.34.59-.75,1.37-1.02,2-2.98-.42-5.93-.42-8.85,0-.28-.62-.69-1.41-1.04-2-2.8.46-5.48,1.26-7.99,2.36-5.05,7.18-6.42,14.17-5.74,21.07,3.35,2.35,6.6,3.78,9.79,4.71.79-1.02,1.49-2.1,2.1-3.25-1.15-.41-2.26-.92-3.3-1.51.28-.2.55-.39.81-.6,6.37,2.8,13.29,2.8,19.58,0,.26.21.54.41.81.6-1.05.59-2.16,1.1-3.31,1.51.61,1.14,1.3,2.23,2.1,3.25,3.2-.93,6.45-2.36,9.8-4.72.8-8-1.37-14.93-5.75-21.07h0ZM18.57,30.11c-1.91,0-3.48-1.68-3.48-3.72s1.54-3.72,3.48-3.72,3.52,1.68,3.48,3.72c0,2.04-1.54,3.72-3.48,3.72ZM31.43,30.11c-1.91,0-3.48-1.68-3.48-3.72s1.53-3.72,3.48-3.72,3.52,1.68,3.48,3.72c0,2.04-1.54,3.72-3.48,3.72Z"/>
</svg>