<?xml version="1.0" encoding="UTF-8"?>
<svg id="Layer_1" xmlns="http://www.w3.org/2000/svg" version="1.1" viewBox="0 0 800 800">
  <!-- Generator: Adobe Illustrator 30.3.0, SVG Export Plug-In . SVG Version: 2.1.3 Build 182)  -->
  <defs>
    <style>
      .st0 {
        fill: #878a90;
      }

      .st1 {
        fill: #b15959;
      }
    </style>
  </defs>
  <path class="st0" d="M703.57,490.39v14.44c-4.09,13.03-12.31,22.73-25.2,31.92-69.72,49.73-142.69,91.12-220.02,127.76-22.54,10.68-43.28,21.74-68.84,21.21-25.71,1.22-51.02-1.13-74.16-13.01l-103.16-52.98.04-193.8c31.48,1.17,62.12-2.54,92.5,1.72,39.5,5.54,71.97,28.49,105.93,47.52l74.39,1.11c8.06.12,17.83,7.55,21.86,12.51,5.16,6.36,6.98,19.03,2.38,26.36-9.68,15.45-26.78,23.82-44.81,26.72-42.55,6.85-72.95-9.19-73.01,15.72-.01,5.3,6.91,14.25,14.19,14.08,59.79-1.36,112.37-1.09,130.62-63.84,36.13-17.2,70.02-36.65,106.17-51.09,27.64-11.03,56.63,8.57,61.14,33.67Z"/>
  <polygon class="st0" points="96.43 636.95 96.43 405.94 186.4 406.98 186.38 639.21 96.43 636.95"/>
  <path class="st1" d="M605.95,215.49c0,79.93-103.88,178.92-155.84,220.4-16.58,13.48-40.62,13.48-57.22,0-51.95-41.55-155.84-140.79-155.84-220.4,0-55.97,41.17-101.49,92.25-101.49,44.81,0,83.57,35.35,91.87,82.11,8.3-46.75,47.68-82.11,92.57-82.11,51.02,0,92.18,45.51,92.18,101.49h.02,0Z"/>
</svg>