<?xml version="1.0" encoding="UTF-8"?>
<svg id="Globe" xmlns="http://www.w3.org/2000/svg" version="1.1" viewBox="0 0 512 512">
  <!-- Generator: Adobe Illustrator 30.1.0, SVG Export Plug-In . SVG Version: 2.1.1 Build 136)  -->
  <path d="M256,506.99c-67.04,0-130.07-26.11-177.48-73.51C31.12,386.07,5.01,323.04,5.01,256S31.12,125.93,78.52,78.52C125.93,31.12,188.96,5.01,256,5.01c67,.07,130.01,26.21,177.39,73.6,47.38,47.38,73.52,110.39,73.6,177.41,0,67.03-26.11,130.06-73.51,177.47-47.4,47.4-110.44,73.51-177.48,73.51h0ZM362.55,298.02c-7.16,47.95-22.77,93.74-46.37,136.07l-13.62,24.42,26.15-9.91c64.68-24.51,112.56-79.39,128.08-146.79l2.87-12.49h-95.82l-1.29,8.7h0ZM55.21,301.83c15.52,67.4,63.4,122.28,128.08,146.79l26.14,9.9-13.61-24.41c-23.61-42.34-39.21-88.13-46.38-136.08l-1.3-8.7H52.34l2.87,12.49h0ZM195.59,301.41c8.84,47.06,26.27,91.45,51.79,131.98l8.64,13.71,8.63-13.71c25.51-40.51,42.93-84.92,51.79-131.98l2.27-12.09h-125.38l2.27,12.09h0ZM316.19,77.92c27.37,48.67,43.71,101.56,48.55,157.19l.81,9.31h96.48l-1.29-11.35c-4.29-37.7-18.87-73.45-42.18-103.41-23.3-29.94-54.38-52.87-89.88-66.3l-26.27-9.93,13.77,24.48ZM247.4,78.56c-29.61,46.39-48.56,99.83-54.8,154.52l-1.29,11.36h129.39l-1.29-11.35c-6.24-54.69-25.18-108.12-54.8-154.52l-8.6-13.47-8.6,13.47h0ZM183.3,63.38c-35.49,13.42-66.57,36.34-89.88,66.3-23.3,29.94-37.89,65.7-42.18,103.41l-1.29,11.35h96.48l.81-9.31c4.84-55.63,21.18-108.51,48.55-157.19l13.77-24.48s-26.27,9.93-26.27,9.93Z"/>
</svg>