<?xml version="1.0" encoding="UTF-8"?>
<svg id="Layer_1" xmlns="http://www.w3.org/2000/svg" version="1.1" viewBox="0 0 800 800">
  <!-- Generator: Adobe Illustrator 30.1.0, SVG Export Plug-In . SVG Version: 2.1.1 Build 136)  -->
  <defs>
    <style>
      .st0 {
        fill: #90a9c4;
      }
    </style>
  </defs>
  <path class="st0" d="M695.91,343.58l-57.23-57.23v-45.66c0-43.82-35.74-79.5-79.56-79.5h-45.66l-57.16-57.23c-30.09-30.03-82.52-30.03-112.55,0l-57.23,57.23h-45.6c-43.89,0-79.56,35.68-79.56,79.5v45.66l-57.23,57.23c-31.01,31.01-31.01,81.47,0,112.48l57.23,57.23v45.66c0,43.82,35.68,79.5,79.56,79.5h45.6l57.23,57.23c15.05,14.98,35.02,23.32,56.24,23.32s41.26-8.28,56.24-23.32l57.23-57.23h45.66c43.82,0,79.56-35.68,79.56-79.5v-45.66l57.23-57.23c30.95-31.01,30.95-81.47,0-112.48h0ZM400,611c-23.82,0-43.14-19.32-43.14-43.14s19.32-43.21,43.14-43.21,43.21,19.4,43.21,43.21-19.4,43.14-43.21,43.14ZM447.43,414.19c-6.17,3.33-14.62,18.44-14.62,28.67v16.24c0,18.11-14.7,32.81-32.81,32.81s-32.73-14.7-32.73-32.81v-16.24c0-33.79,20.87-70.82,48.49-86.09,9.5-5.2,19.49-17.54,16.49-34.92-2.27-12.91-13.16-23.8-25.99-25.99-10.07-1.87-19.74.65-27.29,7.07-7.47,6.17-11.7,15.35-11.7,25.1,0,18.11-14.7,32.81-32.81,32.81s-32.81-14.7-32.81-32.81c0-29.16,12.83-56.61,35.17-75.37,22.34-18.68,51.74-26.64,80.73-21.36,39.63,6.9,72.28,39.47,79.27,79.19,7.31,41.75-12.59,83.41-49.38,103.72v-.02Z"/>
</svg>