<?xml version="1.0" encoding="UTF-8"?>
<svg id="Layer_1" xmlns="http://www.w3.org/2000/svg" version="1.1" viewBox="0 0 50 50">
  <!-- Generator: Adobe Illustrator 30.1.0, SVG Export Plug-In . SVG Version: 2.1.1 Build 136)  -->
  <defs>
    <style>
      .st0 {
        fill: #878a90;
      }

      .st1 {
        fill: #353535;
      }
    </style>
  </defs>
  <rect class="st0" x="8.03" y="9.58" width="33.93" height="30.84" rx="4.32" ry="4.32"/>
  <g>
    <path class="st1" d="M37.64,42.42H12.36c-3.49,0-6.32-2.84-6.32-6.32V13.9c0-3.49,2.84-6.32,6.32-6.32h25.29c3.49,0,6.32,2.84,6.32,6.32v22.19c0,3.49-2.84,6.32-6.32,6.32ZM12.36,11.58c-1.28,0-2.32,1.04-2.32,2.32v22.19c0,1.28,1.04,2.32,2.32,2.32h25.29c1.28,0,2.32-1.04,2.32-2.32V13.9c0-1.28-1.04-2.32-2.32-2.32H12.36Z"/>
    <rect class="st1" x="12.59" y="15.6" width="3.79" height="3.75" rx=".8" ry=".8"/>
    <rect class="st1" x="33.61" y="15.6" width="3.79" height="3.75" rx=".8" ry=".8"/>
    <rect class="st1" x="26.61" y="15.6" width="3.79" height="3.75" rx=".8" ry=".8"/>
    <rect class="st1" x="19.6" y="15.6" width="3.79" height="3.75" rx=".8" ry=".8"/>
    <rect class="st1" x="12.59" y="23.23" width="3.79" height="3.75" rx=".8" ry=".8"/>
    <rect class="st1" x="33.61" y="23.23" width="3.79" height="3.75" rx=".8" ry=".8"/>
    <rect class="st1" x="26.61" y="23.23" width="3.79" height="3.75" rx=".8" ry=".8"/>
    <rect class="st1" x="19.6" y="23.23" width="3.79" height="3.75" rx=".8" ry=".8"/>
    <path class="st1" d="M29.81,34.47h-9.53c-.97,0-1.75-.78-1.75-1.75s.78-1.75,1.75-1.75h9.53c.97,0,1.75.78,1.75,1.75s-.78,1.75-1.75,1.75Z"/>
  </g>
</svg>