<?xml version="1.0" encoding="UTF-8"?>
<svg id="Layer_1" xmlns="http://www.w3.org/2000/svg" version="1.1" viewBox="0 0 50 50">
  <!-- Generator: Adobe Illustrator 30.1.0, SVG Export Plug-In . SVG Version: 2.1.1 Build 136)  -->
  <defs>
    <style>
      .st0 {
        fill: #6f6f6f;
      }
    </style>
  </defs>
  <path class="st0" d="M32.09,36.07c-.39-.04-.75.24-.79.63-.05.39.22.75.61.81,6.04.75,8,2.18,8,2.75,0,1.07-5.24,3.15-14.85,3.15s-14.85-2.08-14.85-3.15c0-.59,2.03-2.05,8.32-2.79.39-.05.67-.41.63-.8-.05-.39-.4-.68-.79-.64-3.59.42-9.61,1.53-9.61,4.24,0,3.38,9.75,4.61,16.3,4.61s16.31-1.22,16.31-4.61c0-2.65-5.81-3.76-9.27-4.19Z"/>
  <g id="surface1">
    <path class="st0" d="M29.02,10.39c0,2.21-1.79,4.01-4.01,4.01s-4.01-1.79-4.01-4.01,1.79-4.01,4.01-4.01,4.01,1.79,4.01,4.01Z"/>
    <path class="st0" d="M34.59,26.74c-.49-4.16-1.2-7.53-4.3-10.35-1.76-1.28-3.49-1.25-4.97-1.29h0s-.04,0-.06,0c-.08,0-.17,0-.25,0h0c-1.55-.01-3.39-.08-5.28,1.3-3.1,2.82-3.81,6.19-4.3,10.35-.25,2.11,3.05,2.55,3.3.46.29-2.48.71-4.97,1.93-7.09v1.93l-.03,11.04v6.35c0,.98.72,1.78,1.73,1.78s1.82-.8,1.82-1.78v-10.27h1.66v10.27c0,.98.81,1.78,1.82,1.78s1.73-.8,1.73-1.78v-6.35l-.03-11.04v-1.93c1.22,2.12,1.65,4.61,1.93,7.09.24,2.08,3.55,1.65,3.3-.46Z"/>
  </g>
</svg>