<?xml version="1.0" encoding="UTF-8"?>
<svg id="Layer_1" xmlns="http://www.w3.org/2000/svg" version="1.1" viewBox="0 0 30 30">
  <!-- Generator: Adobe Illustrator 30.1.0, SVG Export Plug-In . SVG Version: 2.1.1 Build 136)  -->
  <defs>
    <style>
      .st0 {
        fill: #8ad25b;
      }

      .st1 {
        fill: #68a48c;
      }

      .st2 {
        fill: #577e6e;
      }
    </style>
  </defs>
  <path class="st0" d="M29.81,25.4c0,1.94-1.59,3.51-3.55,3.51s-3.55-1.58-3.55-3.51,1.59-3.51,3.55-3.51,3.55,1.58,3.55,3.51Z"/>
  <g id="surface2">
    <path class="st1" d="M14.13,24.15l4.15-4.13c1.09-1.06,1.7-2.61,1.7-4.15,0-.46-.18-1.37-.49-2.25-.27-.85-.7-1.64-1.22-1.64-.21,0-.85.49-1.3,1-.52.52-1,1.06-1,1.28,0,.15.09.39.24.64.15.27.27.58.27.97-.03.61-.27,1.22-.7,1.7l-2.46,2.43c-.21.24-.46.49-.7.76l-.76.76c-.52.49-1.15.82-1.91.82-1.27,0-2.3-1-2.3-2.3,0-.31.06-.58.15-.79.18-.43.37-.73.58-.97.09-.12.12-.24.12-.33,0-.06-.03-.12-.06-.24-.37-.82-.58-1.52-.73-2.37-.06-.15-.09-.28-.18-.34-.09-.12-.24-.15-.4-.15-.12,0-.21.03-.33.12-.24.15-.49.4-.7.64-.09.12-.21.21-.27.27-1.09,1.09-1.73,2.61-1.73,4.15s.64,3.09,1.73,4.15c1.06,1.06,2.52,1.7,4.12,1.7s3.09-.61,4.15-1.73h0Z"/>
    <path class="st2" d="M14.22,12.5l2.43-2.46c.21-.21.46-.49.7-.79.24-.27.52-.52.79-.73.52-.46,1.12-.85,1.88-.85.67,0,1.24.31,1.67.7.43.4.67.97.67,1.64,0,.27-.03.58-.12.79-.21.43-.4.73-.58.97-.09.12-.18.24-.18.36,0,.09,0,.18.06.21.33.82.58,1.52.73,2.37.09.34.27.49.58.49.12,0,.24-.03.37-.12.24-.15.46-.4.67-.64.12-.12.21-.24.27-.3,1.09-1.06,1.73-2.58,1.73-4.12,0-1.64-.67-3.1-1.73-4.16-1.06-1.03-2.55-1.73-4.13-1.73s-3.09.64-4.15,1.76l-4.15,4.12c-1.09,1.12-1.7,2.58-1.7,4.12,0,.46.18,1.4.49,2.28.3.85.7,1.61,1.21,1.61.27,0,.85-.46,1.33-.97.49-.52.97-1.09.97-1.31,0-.15-.12-.34-.24-.61-.15-.27-.21-.61-.21-1,0-.61.24-1.21.67-1.64h0Z"/>
  </g>
</svg>