<?xml version="1.0" encoding="UTF-8"?>
<svg id="Layer_1" xmlns="http://www.w3.org/2000/svg" version="1.1" viewBox="0 0 50 50">
  <!-- Generator: Adobe Illustrator 30.1.0, SVG Export Plug-In . SVG Version: 2.1.1 Build 136)  -->
  <defs>
    <style>
      .st0 {
        fill: #66686b;
      }

      .st1 {
        fill: #b46060;
      }

      .st2 {
        fill: #b8bcc1;
      }
    </style>
  </defs>
  <g id="surface2">
    <path class="st0" d="M23.75,34.3l-6.15,3.52-6.38-11.12c-1.57-2.75-1.93-5.96-1-9.06.91-3.02,2.94-5.55,5.72-7.14.07-.04.13-.08.2-.11,5.77-3.17,13.1-1.13,16.35,4.54l6.2,10.81-6.15,3.52-6.38-11.12c-1.34-2.34-4.39-3.11-6.82-1.72-2.43,1.39-3.31,4.41-1.97,6.75l6.37,11.13Z"/>
    <polygon class="st2" points="34.95 33.54 41.1 30.01 38.66 25.75 32.54 29.25 34.95 33.54"/>
    <polygon class="st2" points="20 42.1 26.15 38.58 23.71 34.32 17.6 37.82 20 42.1"/>
    <path class="st1" d="M27.35,40.61l-2.53-4.42-6.19,3.54,2.53,4.42,6.19-3.54Z"/>
    <path class="st1" d="M36.12,35.58l6.17-3.54-2.53-4.41-6.17,3.54,2.53,4.41Z"/>
  </g>
</svg>