<?xml version="1.0" encoding="UTF-8"?>
<svg id="Layer_1" xmlns="http://www.w3.org/2000/svg" version="1.1" viewBox="0 0 50 50">
  <!-- Generator: Adobe Illustrator 30.3.0, SVG Export Plug-In . SVG Version: 2.1.3 Build 182)  -->
  <defs>
    <style>
      .st0 {
        fill: #818284;
      }

      .st1 {
        fill: #73a18e;
      }

      .st2 {
        fill: #d6d6d6;
      }
    </style>
  </defs>
  <g id="surface2">
    <path class="st0" d="M23.3,33.53l-6.15,3.52-5.93-10.35c-1.57-2.75-1.93-5.96-1-9.06.91-3.02,2.94-5.55,5.72-7.14.07-.04.13-.08.2-.11,5.77-3.17,13.1-1.13,16.35,4.54l5.75,10.04-6.15,3.52-5.93-10.35c-1.34-2.34-4.39-3.11-6.82-1.72-2.43,1.39-3.31,4.41-1.97,6.75l5.92,10.36h0Z"/>
    <polygon class="st2" points="34.95 33.54 41.1 30.01 38.21 24.98 32.09 28.48 34.95 33.54"/>
    <polygon class="st2" points="20 42.1 26.7 39.5 23.26 33.55 17.15 37.05 20 42.1"/>
    <path class="st1" d="M27.9,41.53l-3.08-5.34-6.19,3.54,3.08,5.34,6.19-3.54Z"/>
    <path class="st1" d="M36.67,36.5l6.17-3.54-3.08-5.33-6.17,3.54s3.08,5.33,3.08,5.33Z"/>
  </g>
</svg>