<?xml version="1.0" encoding="UTF-8"?>
<svg id="Layer_1" xmlns="http://www.w3.org/2000/svg" version="1.1" viewBox="0 0 30 30">
  <!-- Generator: Adobe Illustrator 30.1.0, SVG Export Plug-In . SVG Version: 2.1.1 Build 136)  -->
  <defs>
    <style>
      .st0 {
        fill: #68a48c;
      }

      .st1 {
        fill: #f0f0f0;
      }

      .st2 {
        fill: none;
        stroke: #68a48c;
        stroke-miterlimit: 10;
        stroke-width: 1.5px;
      }
    </style>
  </defs>
  <path class="st0" d="M9.88,13.71l4.39,4.44c.58.58,1.52.59,2.11,0h0c.58-.57.59-1.52,0-2.11l-2.56-2.59,6.55.05c.83,0,1.49-.67,1.49-1.49h0c0-.82-.67-1.49-1.48-1.49l-6.54-.05,2.59-2.56c.58-.58.59-1.52,0-2.11h0c-.57-.58-1.52-.59-2.11,0l-4.45,4.39c-.94.93-.96,2.57-.02,3.52h0Z"/>
  <line class="st2" x1="4.99" y1="22.12" x2="25.01" y2="22.12"/>
  <rect class="st1" x="7.61" y="19.1" width="2.35" height="6.04" rx=".36" ry=".36"/>
</svg>