<?xml version="1.0" encoding="UTF-8"?>
<svg id="Layer_1" xmlns="http://www.w3.org/2000/svg" version="1.1" viewBox="0 0 30 30">
  <!-- Generator: Adobe Illustrator 30.1.0, SVG Export Plug-In . SVG Version: 2.1.1 Build 136)  -->
  <defs>
    <style>
      .st0 {
        fill: #68a48c;
      }
    </style>
  </defs>
  <path class="st0" d="M22.7,13.1l-4.82-4.87c-.64-.64-1.67-.65-2.31-.01h0c-.64.63-.65,1.67-.01,2.31l2.81,2.84-10.19-.06c-.91,0-1.64.73-1.64,1.63h0c0,.9.73,1.63,1.62,1.64l10.18.06-2.84,2.81c-.64.64-.65,1.67-.01,2.31h0c.63.64,1.67.65,2.31.01l4.88-4.82c1.03-1.02,1.05-2.82.02-3.86h0Z"/>
</svg>