<?xml version="1.0" encoding="UTF-8"?>
<svg id="Layer_1" xmlns="http://www.w3.org/2000/svg" version="1.1" viewBox="0 0 30 30">
  <!-- Generator: Adobe Illustrator 30.1.0, SVG Export Plug-In . SVG Version: 2.1.1 Build 136)  -->
  <defs>
    <style>
      .st0 {
        fill: #bdbdbd;
      }

      .st1 {
        fill: #68a48c;
      }
    </style>
  </defs>
  <path class="st1" d="M27.63,13.27l-4.39-4.44c-.58-.58-1.52-.59-2.11,0h0c-.58.57-.59,1.52,0,2.11l2.56,2.59-4.55-.05c-.83,0-1.49.67-1.49,1.49h0c0,.82.67,1.49,1.48,1.49l4.54.05-2.59,2.56c-.58.58-.59,1.52,0,2.11h0c.57.58,1.52.59,2.11,0l4.45-4.39c.94-.93.96-2.57.02-3.52h-.03Z"/>
  <path class="st1" d="M2.37,16.73l4.39,4.44c.58.58,1.52.59,2.11,0h0c.58-.57.59-1.52,0-2.11l-2.56-2.59,4.55.05c.83,0,1.49-.67,1.49-1.49h0c0-.82-.67-1.49-1.48-1.49l-4.54-.05,2.59-2.56c.58-.58.59-1.52,0-2.11h0c-.57-.58-1.52-.59-2.11,0l-4.45,4.39c-.94.93-.96,2.57-.02,3.52h.03Z"/>
  <g>
    <path class="st0" d="M16.79,20.85c0-.97-.8-1.75-1.77-1.75-.97,0-1.75.8-1.75,1.77s.8,1.75,1.77,1.75c.97,0,1.75-.79,1.75-1.77Z"/>
    <path class="st0" d="M16.76,14.99c0-.97-.8-1.75-1.77-1.75s-1.75.8-1.75,1.77c0,.97.79,1.75,1.77,1.75s1.75-.8,1.75-1.77Z"/>
    <path class="st0" d="M16.72,9.13c0-.97-.79-1.75-1.77-1.75-.97,0-1.75.79-1.75,1.77,0,.97.8,1.75,1.77,1.75.97,0,1.75-.8,1.75-1.77Z"/>
  </g>
</svg>