<?xml version="1.0" encoding="UTF-8"?>
<svg id="Layer_1" xmlns="http://www.w3.org/2000/svg" version="1.1" viewBox="0 0 50 50">
  <!-- Generator: Adobe Illustrator 30.1.0, SVG Export Plug-In . SVG Version: 2.1.1 Build 136)  -->
  <defs>
    <style>
      .st0 {
        fill: #63a388;
      }
    </style>
  </defs>
  <path class="st0" d="M42.64,31.36L18.14,7.54c-1.04-1.01-2.85-.83-4.04.39l-6.46,6.65c-1.19,1.23-1.31,3.04-.27,4.05l24.5,23.82c1.04,1.01,2.85.83,4.04-.39l6.47-6.66c1.19-1.23,1.31-3.04.27-4.06h0ZM15.67,14.39l-1.35-1.31,3.85-3.96,1.35,1.31-3.85,3.96ZM15.29,20.18l-1.35-1.31,6.93-7.13,1.35,1.31-6.93,7.13ZM21.06,19.63l-1.35-1.31,3.85-3.96,1.35,1.31-3.85,3.96ZM23.75,22.25l-1.35-1.31,3.85-3.96,1.35,1.31-3.85,3.96ZM23.37,28.03l-1.35-1.31,6.92-7.13,1.35,1.31-6.92,7.13ZM29.14,27.48l-1.35-1.31,3.85-3.96,1.35,1.31-3.85,3.96ZM31.83,30.1l-1.35-1.31,3.85-3.96,1.35,1.31-3.85,3.96ZM31.44,35.88l-1.35-1.31,6.93-7.13,1.35,1.31-6.93,7.13ZM37.21,35.33l-1.35-1.31,3.85-3.96,1.34,1.31-3.85,3.96Z"/>
</svg>