<?xml version="1.0" encoding="UTF-8"?>
<svg id="Layer_1" xmlns="http://www.w3.org/2000/svg" version="1.1" viewBox="0 0 50 50">
  <!-- Generator: Adobe Illustrator 30.1.0, SVG Export Plug-In . SVG Version: 2.1.1 Build 136)  -->
  <defs>
    <style>
      .st0 {
        fill: #624d70;
      }

      .st1 {
        fill: #c191db;
      }
    </style>
  </defs>
  <path class="st1" d="M41.25,30.86L18.68,8.92c-.96-.93-2.62-.76-3.72.36l-5.95,6.12c-1.1,1.13-1.21,2.8-.25,3.73l22.56,21.94c.96.93,2.62.76,3.72-.36l5.96-6.13c1.1-1.13,1.21-2.8.25-3.74h0v.02h0Z"/>
  <rect class="st0" x="15.01" y="11.93" width="5.08" height="1.73" transform="translate(-3.85 16.48) rotate(-45.86)"/>
  <rect class="st0" x="14.05" y="15.81" width="9.15" height="1.73" transform="translate(-6.31 18.41) rotate(-45.82)"/>
  <rect class="st0" x="19.98" y="16.75" width="5.08" height="1.73" transform="translate(-5.81 21.48) rotate(-45.81)"/>
  <rect class="st0" x="29.9" y="26.4" width="5.08" height="1.73" transform="translate(-9.72 31.52) rotate(-45.81)"/>
  <rect class="st0" x="22.46" y="19.17" width="5.08" height="1.73" transform="translate(-6.8 24) rotate(-45.81)"/>
  <rect class="st0" x="27.42" y="23.99" width="5.08" height="1.73" transform="translate(-8.75 29.01) rotate(-45.81)"/>
  <polygon class="st0" points="28.63 20.02 22.26 26.58 23.5 27.79 29.87 21.22 28.63 20.02"/>
  <rect class="st0" x="34.85" y="31.23" width="5.08" height="1.72" transform="translate(-11.68 36.58) rotate(-45.86)"/>
  <rect class="st0" x="28.92" y="30.26" width="9.15" height="1.73" transform="translate(-12.17 33.46) rotate(-45.82)"/>
</svg>