<?xml version="1.0" encoding="UTF-8"?>
<svg id="Layer_1" xmlns="http://www.w3.org/2000/svg" version="1.1" viewBox="0 0 800 800">
  <!-- Generator: Adobe Illustrator 30.1.0, SVG Export Plug-In . SVG Version: 2.1.1 Build 136)  -->
  <defs>
    <style>
      .st0 {
        fill: #e4e4e4;
      }

      .st1 {
        fill: #619c8d;
      }

      .st2 {
        fill: #96bec7;
      }

      .st3 {
        fill: #878a90;
      }
    </style>
  </defs>
  <path class="st3" d="M161.65,125.07h151.37c34.31,0,62.21,27.83,62.21,62.21v130.04c0,34.38-27.89,62.21-62.21,62.21h-151.37c-34.38,0-62.21-27.83-62.21-62.21v-130.04c0-34.38,27.83-62.21,62.21-62.21h0Z"/>
  <path class="st1" d="M161.26,421.63h151.11c34.31,0,62.14,27.83,62.14,62.14v129.78c0,34.31-27.83,62.14-62.14,62.14h-151.11c-34.31,0-62.08-27.83-62.08-62.14v-129.78c0-34.31,27.76-62.14,62.08-62.14h0Z"/>
  <path class="st2" d="M485.6,125.07h151.37c34.31,0,62.21,27.83,62.21,62.21v130.04c0,34.38-27.89,62.21-62.21,62.21h-151.37c-34.38,0-62.21-27.83-62.21-62.21v-130.04c0-34.38,27.83-62.21,62.21-62.21h0Z"/>
  <path class="st0" d="M686.44,429.99c-4.58,0-9.03,1.87-12.35,4.98l-16.14,15.85c-25.72-26.1-57.01-38.8-95.56-38.8-77.19,0-135.4,58.21-135.4,135.4s63.16,138.58,140.8,138.58c41.95,0,81.41-18.22,108.27-49.98,12.48-14.76,10.63-36.84-4.13-49.32-14.76-12.48-36.85-10.63-49.32,4.13-13.53,16-33.5,25.18-54.81,25.18-39.04,0-70.8-30.76-70.8-68.58s26.89-65.4,65.4-65.4c20.04,0,32.97,5.05,45.6,17.85l-14.19,13.94v.02h0c-6.87,6.72-6.87,17.57,0,24.16,3.3,3.23,7.76,4.98,12.35,4.98h80.29c9.67,0,17.56-7.72,17.56-17.19v-78.6c0-9.47-7.89-17.19-17.56-17.19Z"/>
</svg>