<?xml version="1.0" encoding="UTF-8"?>
<svg id="Layer_1" xmlns="http://www.w3.org/2000/svg" version="1.1" viewBox="0 0 800 800">
  <!-- Generator: Adobe Illustrator 30.1.0, SVG Export Plug-In . SVG Version: 2.1.1 Build 136)  -->
  <defs>
    <style>
      .st0 {
        fill: #c2827c;
      }

      .st1 {
        fill: #619c8d;
      }

      .st2 {
        fill: #878a90;
      }

      .st3 {
        fill: none;
        stroke: #e4e4e4;
        stroke-linecap: round;
        stroke-miterlimit: 10;
        stroke-width: 79px;
      }
    </style>
  </defs>
  <g id="surface2">
    <path class="st2" d="M161.65,125.07h151.37c34.31,0,62.21,27.83,62.21,62.21v130.04c0,34.38-27.89,62.21-62.21,62.21h-151.37c-34.38,0-62.21-27.83-62.21-62.21v-130.04c0-34.38,27.83-62.21,62.21-62.21h0Z"/>
    <path class="st1" d="M161.26,421.63h151.11c34.31,0,62.14,27.83,62.14,62.14v129.78c0,34.31-27.83,62.14-62.14,62.14h-151.11c-34.31,0-62.08-27.83-62.08-62.14v-129.78c0-34.31,27.76-62.14,62.08-62.14h0Z"/>
    <path class="st0" d="M485.8,421.3h151.24c34.31,0,62.14,27.83,62.14,62.14v129.98c0,34.31-27.83,62.14-62.14,62.14h-151.24c-34.31,0-62.14-27.83-62.14-62.14v-129.98c0-34.31,27.83-62.14,62.14-62.14Z"/>
    <line class="st3" x1="456.93" y1="246.5" x2="668" y2="246.5"/>
    <line class="st3" x1="562.46" y1="346" x2="562.46" y2="147"/>
  </g>
</svg>