<?xml version="1.0" encoding="UTF-8"?>
<svg id="Layer_1" xmlns="http://www.w3.org/2000/svg" version="1.1" viewBox="0 0 800 800">
  <!-- Generator: Adobe Illustrator 30.1.0, SVG Export Plug-In . SVG Version: 2.1.1 Build 136)  -->
  <defs>
    <style>
      .st0 {
        fill: #619c8d;
      }

      .st1 {
        fill: none;
        stroke: #e4e4e4;
        stroke-linecap: round;
        stroke-miterlimit: 10;
        stroke-width: 70px;
      }

      .st2 {
        fill: #878a90;
      }

      .st3 {
        fill: #e4e4e4;
      }

      .st4 {
        fill: #96bec7;
      }
    </style>
  </defs>
  <path class="st2" d="M161.65,125.07h151.37c34.31,0,62.21,27.83,62.21,62.21v130.04c0,34.38-27.89,62.21-62.21,62.21h-151.37c-34.38,0-62.21-27.83-62.21-62.21v-130.04c0-34.38,27.83-62.21,62.21-62.21h0Z"/>
  <path class="st0" d="M161.26,421.63h151.11c34.31,0,62.14,27.83,62.14,62.14v129.78c0,34.31-27.83,62.14-62.14,62.14h-151.11c-34.31,0-62.08-27.83-62.08-62.14v-129.78c0-34.31,27.76-62.14,62.08-62.14h0Z"/>
  <path class="st4" d="M485.6,125.07h151.37c34.31,0,62.21,27.83,62.21,62.21v130.04c0,34.38-27.89,62.21-62.21,62.21h-151.37c-34.38,0-62.21-27.83-62.21-62.21v-130.04c0-34.38,27.83-62.21,62.21-62.21h0Z"/>
  <g>
    <path class="st3" d="M593.8,513.83c-6.87,6.72-6.87,17.57,0,24.16,3.3,3.23,7.76,4.98,12.35,4.98h80.29c9.67,0,17.56-7.72,17.56-17.19v-78.6c0-9.47-7.89-17.19-17.56-17.19-4.58,0-9.03,1.87-12.35,4.98l-80.29,78.84v.02Z"/>
    <path class="st1" d="M649.33,613.42c-19.41,22.96-48.73,37.58-81.54,37.58-58.43,0-105.8-46.37-105.8-103.58s41.97-100.4,100.4-100.4c30.58,0,52.74,9.54,72.06,29.84"/>
  </g>
</svg>