<?xml version="1.0" encoding="UTF-8"?>
<svg id="Layer_1" xmlns="http://www.w3.org/2000/svg" version="1.1" viewBox="0 0 800 800">
  <!-- Generator: Adobe Illustrator 30.1.0, SVG Export Plug-In . SVG Version: 2.1.1 Build 136)  -->
  <defs>
    <style>
      .st0 {
        fill: #c2827c;
      }

      .st1 {
        fill: #878a90;
      }

      .st2 {
        fill: #689d85;
      }

      .st3 {
        fill: #96bec7;
      }
    </style>
  </defs>
  <path class="st1" d="M181.23,147.76h138.89c31.48,0,57.08,25.54,57.08,57.08v119.32c0,31.55-25.59,57.08-57.08,57.08h-138.89c-31.55,0-57.08-25.54-57.08-57.08v-119.32c0-31.55,25.54-57.08,57.08-57.08h0Z"/>
  <path class="st2" d="M180.87,419.88h138.66c31.48,0,57.02,25.54,57.02,57.02v119.08c0,31.48-25.54,57.02-57.02,57.02h-138.66c-31.48,0-56.96-25.54-56.96-57.02v-119.08c0-31.48,25.47-57.02,56.96-57.02h0Z"/>
  <path class="st0" d="M478.66,419.58h138.78c31.48,0,57.02,25.54,57.02,57.02v119.27c0,31.48-25.54,57.02-57.02,57.02h-138.78c-31.48,0-57.02-25.54-57.02-57.02v-119.27c0-31.48,25.54-57.02,57.02-57.02h0Z"/>
  <path class="st3" d="M478.48,147.76h138.89c31.48,0,57.08,25.54,57.08,57.08v119.32c0,31.55-25.59,57.08-57.08,57.08h-138.89c-31.55,0-57.08-25.54-57.08-57.08v-119.32c0-31.55,25.54-57.08,57.08-57.08h0Z"/>
</svg>