<?xml version="1.0" encoding="UTF-8"?>
<svg id="Layer_1" xmlns="http://www.w3.org/2000/svg" version="1.1" viewBox="0 0 800 800">
  <!-- Generator: Adobe Illustrator 30.1.0, SVG Export Plug-In . SVG Version: 2.1.1 Build 136)  -->
  <defs>
    <style>
      .st0 {
        fill: #878a90;
      }

      .st1 {
        fill: #689d85;
      }

      .st2 {
        fill: #e4e4e4;
      }

      .st3 {
        fill: #96bec7;
      }
    </style>
  </defs>
  <path class="st2" d="M686.44,429.99c-4.58,0-9.03,1.87-12.35,4.98l-16.14,15.85c-25.72-26.1-57.01-38.8-95.56-38.8-77.19,0-135.4,58.21-135.4,135.4s63.16,138.58,140.8,138.58c41.95,0,81.41-18.22,108.27-49.98,12.48-14.76,10.63-36.84-4.13-49.32s-36.85-10.63-49.32,4.13c-13.53,16-33.5,25.18-54.81,25.18-39.04,0-70.8-30.76-70.8-68.58s26.89-65.4,65.4-65.4c20.04,0,32.97,5.05,45.6,17.85l-14.19,13.94v.02h0c-6.87,6.72-6.87,17.57,0,24.16,3.3,3.23,7.76,4.98,12.35,4.98h80.29c9.67,0,17.56-7.72,17.56-17.19v-78.6c0-9.47-7.89-17.19-17.56-17.19h-.01Z"/>
  <g>
    <path class="st0" d="M182.04,147.38h138.89c31.48,0,57.08,25.54,57.08,57.08v119.32c0,31.55-25.59,57.08-57.08,57.08h-138.89c-31.55,0-57.08-25.54-57.08-57.08v-119.32c0-31.55,25.54-57.08,57.08-57.08h0Z"/>
    <path class="st1" d="M181.68,419.5h138.66c31.48,0,57.02,25.54,57.02,57.02v119.08c0,31.48-25.54,57.02-57.02,57.02h-138.66c-31.48,0-56.96-25.54-56.96-57.02v-119.08c0-31.48,25.47-57.02,56.96-57.02h0Z"/>
    <path class="st3" d="M479.3,147.38h138.89c31.48,0,57.08,25.54,57.08,57.08v119.32c0,31.55-25.59,57.08-57.08,57.08h-138.89c-31.55,0-57.08-25.54-57.08-57.08v-119.32c0-31.55,25.54-57.08,57.08-57.08h0Z"/>
  </g>
</svg>