<?xml version="1.0" encoding="UTF-8"?>
<svg id="Layer_1" xmlns="http://www.w3.org/2000/svg" version="1.1" viewBox="0 0 50 50">
  <!-- Generator: Adobe Illustrator 30.1.0, SVG Export Plug-In . SVG Version: 2.1.1 Build 136)  -->
  <defs>
    <style>
      .st0 {
        fill: #68a48c;
      }
    </style>
  </defs>
  <path class="st0" d="M45.24,41.51l-4.33-4.61,2.83-2.72c.46-.43.61-1.26.04-1.85-.41-.43-.9-.4-1.41-.46l-9.07-1.04c-.64-.08-1.09-.09-1.51.32s-.43.85-.38,1.5l.65,9.11c.03.52-.02,1,.39,1.44.56.59,1.39.47,1.85.04l2.83-2.72,4.33,4.61c.5.52,1.33.54,1.85.04l1.89-1.81c.52-.5.54-1.33.04-1.85Z"/>
</svg>