<?xml version="1.0" encoding="UTF-8"?>
<svg id="Layer_1" xmlns="http://www.w3.org/2000/svg" version="1.1" viewBox="0 0 50 50">
  <!-- Generator: Adobe Illustrator 30.1.0, SVG Export Plug-In . SVG Version: 2.1.1 Build 136)  -->
  <defs>
    <style>
      .st0 {
        fill: #fc574f;
      }

      .st1 {
        fill: #6e6e6e;
      }
    </style>
  </defs>
  <path class="st1" d="M43.93,41.12h0c-1.73-18.5-10.99-22.18-10.99-22.18,0,0-8.96-5.13-18.38,1.4-6.11,5.29-7.53,13.36-8.49,21.17-.49,3.97,6.03,3.92,6.51,0,.57-4.66,1.4-9.33,3.83-13.31v4.49s-.06,14.04-.06,14.04h16.9l.1-14.09c0-2.07,0-3.91,0-5.19,2.61,4.05,3.47,8.87,4.05,13.66.49,3.92,7.01,3.97,6.52,0Z"/>
  <path class="st1" d="M31.61,9.72c0,3.56-2.93,6.45-6.55,6.45s-6.56-2.89-6.56-6.45,2.94-6.45,6.56-6.45,6.55,2.89,6.55,6.45Z"/>
  <g>
    <path class="st0" d="M12.2,38.83c0,1.55-1.22,2.81-2.72,2.81-1.5,0-2.72-1.25-2.72-2.8,0-1.55,1.21-2.81,2.71-2.81,1.5,0,2.72,1.25,2.73,2.8"/>
    <path class="st0" d="M43.26,38.56c0,1.55-1.22,2.81-2.72,2.81-1.5,0-2.72-1.25-2.72-2.8,0-1.55,1.21-2.81,2.71-2.81,1.5,0,2.72,1.25,2.73,2.8"/>
    <path class="st0" d="M27.77,24.56c0,1.55-1.22,2.81-2.72,2.81-1.5,0-2.72-1.25-2.72-2.8,0-1.55,1.21-2.81,2.71-2.81,1.5,0,2.72,1.25,2.73,2.8"/>
    <path class="st0" d="M27.77,10.1c0,1.55-1.22,2.81-2.72,2.81-1.5,0-2.72-1.25-2.72-2.8,0-1.55,1.21-2.81,2.71-2.81,1.5,0,2.72,1.25,2.73,2.8"/>
  </g>
</svg>