<?xml version="1.0" encoding="UTF-8"?>
<svg id="Layer_1" xmlns="http://www.w3.org/2000/svg" version="1.1" viewBox="0 0 800 800">
  <!-- Generator: Adobe Illustrator 30.1.0, SVG Export Plug-In . SVG Version: 2.1.1 Build 136)  -->
  <defs>
    <style>
      .st0 {
        fill: #c2827c;
      }

      .st1 {
        fill: #619c8d;
      }

      .st2 {
        fill: #e4e4e4;
      }

      .st3 {
        fill: #96bec7;
      }
    </style>
  </defs>
  <path class="st1" d="M161.26,421.63h151.11c34.31,0,62.14,27.83,62.14,62.14v129.78c0,34.31-27.83,62.14-62.14,62.14h-151.11c-34.31,0-62.08-27.83-62.08-62.14v-129.78c0-34.31,27.76-62.14,62.08-62.14h0Z"/>
  <path class="st0" d="M485.8,421.3h151.24c34.31,0,62.14,27.83,62.14,62.14v129.98c0,34.31-27.83,62.14-62.14,62.14h-151.24c-34.31,0-62.14-27.83-62.14-62.14v-129.98c0-34.31,27.83-62.14,62.14-62.14Z"/>
  <path class="st3" d="M485.6,125.07h151.37c34.31,0,62.21,27.83,62.21,62.21v130.04c0,34.38-27.89,62.21-62.21,62.21h-151.37c-34.38,0-62.21-27.83-62.21-62.21v-130.04c0-34.38,27.83-62.21,62.21-62.21h0Z"/>
  <path class="st2" d="M126.24,252.85c13.85,13.85,36.15,13.85,49.76,0l20.66-20.66-.47,117.6c0,19.48,15.73,35.21,35.21,35.21h0c19.48,0,35.21-15.73,35.21-35.21l.47-120.18,21.6,21.6c13.85,13.85,36.15,13.85,49.76,0,13.85-13.85,13.85-36.15,0-49.76l-80.51-80.51c-6.57-6.57-15.49-10.33-24.88-10.33s-18.31,3.76-24.88,10.33l-81.92,81.92c-13.85,13.85-13.85,36.15,0,49.76h0v.23Z"/>
</svg>