<?xml version="1.0" encoding="UTF-8"?>
<svg id="Layer_1" xmlns="http://www.w3.org/2000/svg" version="1.1" viewBox="0 0 50 50">
  <!-- Generator: Adobe Illustrator 30.1.0, SVG Export Plug-In . SVG Version: 2.1.1 Build 136)  -->
  <defs>
    <style>
      .st0 {
        fill: #faf0ef;
      }

      .st1 {
        fill: #878a90;
      }
    </style>
  </defs>
  <path class="st1" d="M32.79,43.3l-.05-10.09v-4.05c2.19,3.59,2.42,5.74,2.94,9.94.43,3.53,6.31,3.06,5.87-.51-.87-7.04-2.15-11.74-7.65-16.51-3.21-2.22-5.83-2.42-8.51-2.46h-.04c-.18,0-.36-.01-.54,0h0c-2.72.02-5.41.2-8.7,2.47-5.51,4.77-6.79,9.47-7.65,16.51-.44,3.58,5.44,4.05,5.87.51.51-4.2.75-6.35,2.94-9.94v4.05l-.05,10.09h15.59-.02Z"/>
  <path class="st1" d="M30.96,13.03c0,3.21-2.64,5.81-5.9,5.81s-5.91-2.61-5.91-5.81,2.65-6.33,5.91-6.33,5.9,3.12,5.9,6.33Z"/>
  <path class="st0" d="M13.95,38.12c0,1.4-1.1,2.53-2.45,2.53s-2.45-1.13-2.45-2.52,1.09-2.53,2.44-2.53,2.45,1.13,2.46,2.52"/>
  <path class="st0" d="M40.96,38.13c0,1.4-1.1,2.53-2.45,2.53s-2.45-1.13-2.45-2.52,1.09-2.53,2.44-2.53,2.45,1.13,2.46,2.52"/>
  <path class="st0" d="M27.5,25.89c0,1.4-1.1,2.53-2.45,2.53s-2.45-1.13-2.45-2.52,1.09-2.53,2.44-2.53,2.45,1.13,2.46,2.52"/>
  <path class="st0" d="M27.5,12.85c0,1.4-1.1,2.53-2.45,2.53s-2.45-1.13-2.45-2.52,1.09-2.53,2.44-2.53,2.45,1.13,2.46,2.52"/>
</svg>