<?xml version="1.0" encoding="UTF-8"?>
<svg id="Layer_1" xmlns="http://www.w3.org/2000/svg" version="1.1" viewBox="0 0 800 800">
  <!-- Generator: Adobe Illustrator 30.1.0, SVG Export Plug-In . SVG Version: 2.1.1 Build 136)  -->
  <defs>
    <style>
      .st0 {
        fill: #c2827c;
      }

      .st1 {
        fill: #878a90;
      }

      .st2 {
        fill: #e4e4e4;
      }

      .st3 {
        fill: #96bec7;
      }
    </style>
  </defs>
  <path class="st2" d="M338.43,548.31c-13.85-13.85-36.15-13.85-49.76,0l-20.66,20.66.47-117.6c0-19.48-15.73-35.21-35.21-35.21h0c-19.48,0-35.21,15.73-35.21,35.21l-.47,120.18-21.6-21.6c-13.85-13.85-36.15-13.85-49.76,0-13.85,13.85-13.85,36.15,0,49.76l80.51,80.51c6.57,6.57,15.49,10.33,24.88,10.33s18.31-3.76,24.88-10.33l81.92-81.92c13.85-13.85,13.85-36.15,0-49.76h0v-.23h.01Z"/>
  <g>
    <path class="st1" d="M181.23,147.76h138.89c31.48,0,57.08,25.54,57.08,57.08v119.32c0,31.55-25.59,57.08-57.08,57.08h-138.89c-31.55,0-57.08-25.54-57.08-57.08v-119.32c0-31.55,25.54-57.08,57.08-57.08h0Z"/>
    <path class="st0" d="M478.66,419.58h138.78c31.48,0,57.02,25.54,57.02,57.02v119.27c0,31.48-25.54,57.02-57.02,57.02h-138.78c-31.48,0-57.02-25.54-57.02-57.02v-119.27c0-31.48,25.54-57.02,57.02-57.02h0Z"/>
    <path class="st3" d="M478.48,147.76h138.89c31.48,0,57.08,25.54,57.08,57.08v119.32c0,31.55-25.59,57.08-57.08,57.08h-138.89c-31.55,0-57.08-25.54-57.08-57.08v-119.32c0-31.55,25.54-57.08,57.08-57.08h0Z"/>
  </g>
</svg>