<?xml version="1.0" encoding="UTF-8"?>
<svg id="Layer_1" xmlns="http://www.w3.org/2000/svg" version="1.1" viewBox="0 0 50 50">
  <!-- Generator: Adobe Illustrator 30.1.0, SVG Export Plug-In . SVG Version: 2.1.1 Build 136)  -->
  <defs>
    <style>
      .st0 {
        fill: #6f6f6f;
      }
    </style>
  </defs>
  <path class="st0" d="M43.39,22.71c0-.96-.78-1.72-1.75-1.72h-2.79c-.29-.99-.68-1.94-1.19-2.85l1.96-1.94c.32-.32.51-.76.51-1.23s-.19-.89-.51-1.23l-3.25-3.22c-.64-.62-1.83-.64-2.47,0l-1.96,1.94c-.92-.49-1.88-.89-2.88-1.18v-2.76c0-.96-.78-1.72-1.75-1.72h-4.6c-.97,0-1.75.78-1.75,1.72v2.76c-1,.29-1.96.68-2.88,1.18l-1.96-1.94c-.65-.65-1.82-.65-2.47,0l-3.25,3.22c-.68.67-.68,1.77,0,2.45l1.96,1.94c-.49.91-.91,1.86-1.19,2.85h-2.79c-.96,0-1.75.78-1.75,1.72v4.56c0,.96.78,1.74,1.75,1.74h2.79c.29.99.68,1.94,1.19,2.85l-1.96,1.94c-.32.32-.51.76-.51,1.23s.19.89.51,1.23l3.25,3.22c.64.64,1.83.64,2.47,0l1.96-1.94c.92.49,1.88.89,2.88,1.18v2.76c0,.96.78,1.74,1.75,1.74h4.6c.97,0,1.75-.78,1.75-1.74v-2.76c1-.29,1.96-.68,2.88-1.18l1.96,1.94c.65.65,1.82.65,2.47,0l3.25-3.22c.68-.68.68-1.77,0-2.45l-1.96-1.94c.51-.91.91-1.86,1.19-2.85h2.77c.97,0,1.75-.78,1.75-1.74v-4.56s.02,0,.02,0ZM31.38,24.98c0,3.47-2.85,6.29-6.37,6.29s-6.37-2.82-6.37-6.29,2.85-6.29,6.37-6.29,6.37,2.84,6.37,6.29Z"/>
</svg>