<?xml version="1.0" encoding="UTF-8"?>
<svg id="Layer_1" xmlns="http://www.w3.org/2000/svg" version="1.1" viewBox="0 0 30 30">
  <!-- Generator: Adobe Illustrator 30.1.0, SVG Export Plug-In . SVG Version: 2.1.1 Build 136)  -->
  <defs>
    <style>
      .st0 {
        fill: #6f6f6f;
      }

      .st1 {
        fill: #8ad25b;
      }
    </style>
  </defs>
  <path class="st0" d="M26.55,13.6c0-.6-.49-1.08-1.1-1.08h-1.75c-.18-.62-.43-1.22-.75-1.79l1.23-1.22c.2-.2.32-.48.32-.77s-.12-.56-.32-.77l-2.04-2.02c-.4-.39-1.15-.4-1.55,0l-1.23,1.22c-.58-.31-1.18-.56-1.81-.74v-1.73c0-.6-.49-1.08-1.1-1.08h-2.89c-.61,0-1.1.49-1.1,1.08v1.73c-.63.18-1.23.43-1.81.74l-1.23-1.22c-.41-.41-1.14-.41-1.55,0l-2.04,2.02c-.43.42-.43,1.11,0,1.54l1.23,1.22c-.31.57-.57,1.17-.75,1.79h-1.75c-.6,0-1.1.49-1.1,1.08v2.86c0,.6.49,1.09,1.1,1.09h1.75c.18.62.43,1.22.75,1.79l-1.23,1.22c-.2.2-.32.48-.32.77s.12.56.32.77l2.04,2.02c.4.4,1.15.4,1.55,0l1.23-1.22c.58.31,1.18.56,1.81.74v1.73c0,.6.49,1.09,1.1,1.09h2.89c.61,0,1.1-.49,1.1-1.09v-1.73c.63-.18,1.23-.43,1.81-.74l1.23,1.22c.41.41,1.14.41,1.55,0l2.04-2.02c.43-.43.43-1.11,0-1.54l-1.23-1.22c.32-.57.57-1.17.75-1.79h1.74c.61,0,1.1-.49,1.1-1.09v-2.86h.01ZM19.01,15.03c0,2.18-1.79,3.95-4,3.95s-4-1.77-4-3.95,1.79-3.95,4-3.95,4,1.78,4,3.95Z"/>
  <path class="st1" d="M29.81,25.4c0,1.94-1.59,3.51-3.55,3.51s-3.55-1.58-3.55-3.51,1.59-3.51,3.55-3.51,3.55,1.58,3.55,3.51Z"/>
</svg>