<?xml version="1.0" encoding="UTF-8"?>
<svg id="Layer_1" xmlns="http://www.w3.org/2000/svg" version="1.1" viewBox="0 0 50 50">
  <!-- Generator: Adobe Illustrator 30.1.0, SVG Export Plug-In . SVG Version: 2.1.1 Build 136)  -->
  <defs>
    <style>
      .st0 {
        fill: #d4e0d8;
      }

      .st1 {
        fill: #62a388;
      }

      .st2 {
        fill: #507c66;
      }
    </style>
  </defs>
  <path class="st2" d="M27.19,22.87l-6.31-3.64c-1.62-.93-3.61-.93-5.24,0l-6.31,3.64c-1.62.94-2.62,2.66-2.62,4.53v7.28c0,1.87,1,3.6,2.62,4.53l6.31,3.64c1.62.93,3.62.93,5.24,0l6.31-3.64c1.62-.94,2.61-2.66,2.62-4.53v-7.28c0-1.87-1-3.6-2.62-4.53ZM16.69,21.05c.97-.56,2.17-.56,3.14,0l6.31,3.64c.16.1.31.22.45.35l-6.48,3.74c-1.14.66-2.55.66-3.69,0l-6.48-3.74c.14-.13.29-.25.45-.34l6.31-3.64ZM10.39,37.41c-.97-.56-1.57-1.6-1.57-2.72v-7.28c0-.19.03-.38.08-.56l6.48,3.74c.57.33,1.2.55,1.85.67v10.02c-.18-.06-.36-.13-.53-.22l-6.31-3.64ZM27.71,34.69c0,1.12-.6,2.16-1.57,2.72l-6.31,3.64c-.17.09-.34.16-.52.22v-10.02c.65-.12,1.27-.34,1.84-.67l6.48-3.74c.04.18.06.37.07.56v7.28Z"/>
  <path class="st1" d="M38.29,9.79l-6.31-3.64c-1.77-1.02-3.96-1.02-5.73,0l-6.31,3.64c-1.77,1.02-2.87,2.92-2.87,4.97v7.28c0,2.04,1.1,3.94,2.87,4.97l6.31,3.64c.88.51,1.88.76,2.87.76s1.98-.25,2.87-.76l6.31-3.64c1.77-1.02,2.86-2.92,2.87-4.97v-7.28c0-2.04-1.1-3.94-2.87-4.97ZM38.07,15.02v7.02c0,.94-.51,1.82-1.32,2.29l-6.08,3.51v-8.83c.56-.14,1.09-.35,1.59-.64l5.81-3.35ZM36.52,12.34l-5.81,3.35c-.98.57-2.2.57-3.19,0l-5.81-3.35,6.08-3.51c.81-.47,1.83-.47,2.64,0l6.08,3.51ZM27.57,19.01v8.83l-6.08-3.51c-.81-.47-1.32-1.35-1.32-2.29v-7.02s5.81,3.35,5.81,3.35c.5.29,1.03.5,1.59.64Z"/>
  <path class="st0" d="M43.28,37.75c0,.7-.57,1.27-1.27,1.28h-3.83v3.82c0,.7-.57,1.27-1.27,1.27-.7,0-1.27-.56-1.28-1.27v-3.82h-3.83c-.7,0-1.27-.58-1.27-1.28s.57-1.27,1.27-1.27h3.83v-3.83c0-.7.57-1.27,1.28-1.27.7,0,1.27.56,1.27,1.27v3.83h3.83c.7,0,1.27.57,1.27,1.27h0Z"/>
</svg>