<?xml version="1.0" encoding="UTF-8"?>
<svg id="Layer_1" xmlns="http://www.w3.org/2000/svg" version="1.1" viewBox="0 0 50 50">
  <!-- Generator: Adobe Illustrator 30.1.0, SVG Export Plug-In . SVG Version: 2.1.1 Build 136)  -->
  <defs>
    <style>
      .st0 {
        fill: #dec9f7;
      }

      .st1 {
        fill: #7d618e;
      }

      .st2 {
        fill: #c191db;
      }
    </style>
  </defs>
  <path class="st0" d="M43.35,31.08c-.21,0-.42.09-.57.23l-.75.73c-1.19-1.21-2.64-1.8-4.43-1.8-3.58,0-6.27,2.7-6.27,6.27s2.93,6.42,6.52,6.42c1.94,0,3.77-.84,5.02-2.32.58-.68.49-1.71-.19-2.28-.68-.58-1.71-.49-2.28.19-.63.74-1.55,1.17-2.54,1.17-1.81,0-3.28-1.43-3.28-3.18s1.25-3.03,3.03-3.03c.93,0,1.53.23,2.11.83l-.66.65h0c-.32.31-.32.81,0,1.12.15.15.36.23.57.23h3.72c.45,0,.81-.36.81-.8v-3.64c0-.44-.37-.8-.81-.8Z"/>
  <path class="st1" d="M27.43,21.93l-6.31-3.64c-1.77-1.02-3.96-1.02-5.73,0l-6.31,3.64c-1.77,1.02-2.87,2.92-2.87,4.97v7.28c0,2.04,1.1,3.94,2.87,4.97l6.31,3.64c.88.51,1.88.76,2.87.76s1.98-.25,2.87-.76l6.31-3.64c1.77-1.02,2.86-2.92,2.87-4.97v-7.28c0-2.04-1.1-3.94-2.87-4.97h-.01ZM27.21,27.16v7.02c0,.94-.51,1.82-1.32,2.29l-6.08,3.51v-8.83c.56-.14,1.09-.35,1.59-.64,0,0,5.81-3.35,5.81-3.35ZM25.66,24.48l-5.81,3.35c-.98.57-2.2.57-3.19,0l-5.81-3.35,6.08-3.51c.81-.47,1.83-.47,2.64,0l6.08,3.51h0ZM16.71,31.15v8.83l-6.08-3.51c-.81-.47-1.32-1.35-1.32-2.29v-7.02l5.81,3.35c.5.29,1.03.5,1.59.64Z"/>
  <path class="st2" d="M38.55,9.22l-6.31-3.64c-1.62-.93-3.61-.93-5.24,0l-6.31,3.64c-1.62.94-2.62,2.66-2.62,4.53v7.28c0,1.87,1,3.6,2.62,4.53l6.31,3.64c1.62.93,3.62.93,5.24,0l6.31-3.64c1.62-.94,2.61-2.66,2.62-4.53v-7.28c0-1.87-1-3.6-2.62-4.53ZM28.05,7.4c.97-.56,2.17-.56,3.14,0l6.31,3.64c.16.1.31.22.45.35l-6.48,3.74c-1.14.66-2.55.66-3.69,0l-6.48-3.74c.14-.13.29-.25.45-.34l6.31-3.64h-.01ZM21.75,23.76c-.97-.56-1.57-1.6-1.57-2.72v-7.28c0-.19.03-.38.08-.56l6.48,3.74c.57.33,1.2.55,1.85.67v10.02c-.18-.06-.36-.13-.53-.22l-6.31-3.64h0ZM39.07,21.04c0,1.12-.6,2.16-1.57,2.72l-6.31,3.64c-.17.09-.34.16-.52.22v-10.02c.65-.12,1.27-.34,1.84-.67l6.48-3.74c.04.18.06.37.07.56v7.28h.01Z"/>
</svg>