<?xml version="1.0" encoding="UTF-8"?>
<svg id="Layer_1" xmlns="http://www.w3.org/2000/svg" version="1.1" viewBox="0 0 800 800">
  <!-- Generator: Adobe Illustrator 30.1.0, SVG Export Plug-In . SVG Version: 2.1.1 Build 136)  -->
  <defs>
    <style>
      .st0 {
        fill: #6f6f6f;
      }

      .st1 {
        fill: #ededed;
        stroke: #ebebeb;
        stroke-linecap: round;
        stroke-linejoin: round;
        stroke-width: 1px;
      }
    </style>
  </defs>
  <path class="st0" d="M701.48,263.4l-586.64,2.78v-24.39c.13-67.86,55.05-122.85,122.92-122.92h62.17c11.45,0,22.71,2.65,32.93,7.76l77.63,38.95c3.36,1.68,7.18,2.52,10.93,2.46h160.5c57.19.13,106.74,39.66,119.55,95.36ZM704.84,312.57v224.23c-.06,67.86-55.05,122.85-122.92,122.92H237.76c-67.86-.06-122.79-55.05-122.92-122.92v-221.44l590-2.78ZM508.18,487.63c0-13.59-11-24.58-24.58-24.58h-49.17v-49.17c0-13.59-11-24.58-24.58-24.58s-24.58,11-24.58,24.58v49.17h-49.17c-13.59,0-24.58,11-24.58,24.58s11,24.58,24.58,24.58h49.17v49.17c0,13.59,11,24.58,24.58,24.58s24.58-11,24.58-24.58v-49.17h49.17c13.59,0,24.58-11,24.58-24.58Z"/>
  <path class="st1" d="M409.84,389.29c-13.59,0-24.58,11-24.58,24.58v49.17h-49.17c-13.59,0-24.58,11-24.58,24.58s11,24.58,24.58,24.58h49.17v49.17c0,13.59,11,24.58,24.58,24.58s24.58-11,24.58-24.58v-49.17h49.17c13.59,0,24.58-11,24.58-24.58s-11-24.58-24.58-24.58h-49.17v-49.17c0-13.59-11-24.58-24.58-24.58Z"/>
</svg>