<?xml version="1.0" encoding="UTF-8"?>
<svg id="Layer_1" xmlns="http://www.w3.org/2000/svg" version="1.1" viewBox="0 0 50 50">
  <!-- Generator: Adobe Illustrator 30.1.0, SVG Export Plug-In . SVG Version: 2.1.1 Build 136)  -->
  <defs>
    <style>
      .st0 {
        fill: #d46262;
      }
    </style>
  </defs>
  <path class="st0" d="M25,5.14C14.03,5.14,5.14,14.03,5.14,25s8.89,19.86,19.86,19.86,19.86-8.89,19.86-19.86S35.97,5.14,25,5.14ZM34.82,31.38c.93.96.92,2.5-.03,3.45-.95.95-2.48.96-3.45.03l-6.36-6.36-6.36,6.36c-.96.93-2.5.92-3.45-.03-.95-.95-.96-2.48-.03-3.45l6.36-6.36-6.36-6.36c-.93-.96-.92-2.5.03-3.45.95-.95,2.48-.96,3.45-.03l6.36,6.36,6.36-6.36c.96-.96,2.52-.96,3.48,0s.96,2.52,0,3.48l-6.36,6.36,6.36,6.36Z"/>
</svg>