<?xml version="1.0" encoding="UTF-8"?>
<svg id="Layer_1" xmlns="http://www.w3.org/2000/svg" version="1.1" viewBox="0 0 50 50">
  <!-- Generator: Adobe Illustrator 30.1.0, SVG Export Plug-In . SVG Version: 2.1.1 Build 136)  -->
  <defs>
    <style>
      .st0 {
        fill: #81749a;
      }

      .st1 {
        fill: #f0f0f0;
      }
    </style>
  </defs>
  <path class="st0" d="M25,6.2c-9.56,0-17.33,7.77-17.33,17.33s7.77,17.33,17.33,17.33,17.33-7.77,17.33-17.33S34.56,6.2,25,6.2ZM10.87,19.84c1.97-.66,3.99-1.17,6.03-1.54-.38,3.47-.38,6.99,0,10.46-2.04-.37-4.06-.88-6.03-1.54-.11-.03-.21-.05-.32-.06-.29-1.17-.47-2.38-.47-3.63s.17-2.48.47-3.65c.11,0,.21,0,.32-.04ZM30.62,29.15c-3.73.47-7.51.47-11.23,0-.47-3.73-.47-7.51,0-11.23,3.73-.47,7.51-.47,11.24,0,.47,3.73.47,7.51,0,11.23ZM39.13,27.22c-1.97.66-3.99,1.17-6.03,1.54.38-3.47.38-6.99,0-10.46,2.04.37,4.06.88,6.03,1.54.11.04.21.05.32.05.29,1.17.47,2.38.47,3.64s-.17,2.47-.47,3.64c-.11,0-.22.02-.32.06ZM38.44,17.1c-1.87-.56-3.77-.99-5.69-1.31-.32-1.92-.76-3.82-1.31-5.69,3.06,1.47,5.53,3.95,7,7ZM28.65,9.09c0,.11,0,.21.04.32.66,1.98,1.17,4,1.54,6.04-3.47-.38-6.99-.38-10.46,0,.37-2.04.88-4.06,1.54-6.04.04-.11.05-.21.06-.32,1.17-.29,2.38-.47,3.63-.47s2.48.17,3.65.47ZM18.37,10.19c.05,0,.1.03.16.04-.54,1.83-.95,3.68-1.26,5.56-1.92.32-3.82.76-5.69,1.31,1.44-2.99,3.84-5.42,6.8-6.9ZM11.66,30.17c0-.05.03-.1.03-.15,1.83.54,3.68.95,5.56,1.26.31,1.87.73,3.73,1.27,5.56-.05,0-.1.03-.15.03-2.9-1.45-5.26-3.8-6.71-6.7ZM21.37,37.98c0-.11-.02-.21-.06-.32-.66-1.97-1.17-3.99-1.54-6.03,1.74.19,3.48.29,5.23.29s3.49-.1,5.23-.29c-.37,2.04-.88,4.06-1.54,6.03-.03.1-.03.21-.04.31-1.17.3-2.39.47-3.65.47s-2.47-.17-3.63-.47ZM31.44,36.96c.56-1.87.99-3.77,1.31-5.69,1.87-.31,3.73-.73,5.55-1.26,0,.06.03.1.04.16-1.48,2.96-3.91,5.36-6.9,6.79Z"/>
  <g>
    <rect class="st1" x="10.18" y="37.59" width="7.37" height="7.37" rx=".36" ry=".36"/>
    <rect class="st1" x="21.31" y="37.59" width="7.37" height="7.37" rx=".36" ry=".36"/>
    <rect class="st1" x="32.44" y="37.59" width="7.37" height="7.37" rx=".36" ry=".36"/>
  </g>
</svg>