<?xml version="1.0" encoding="UTF-8"?>
<svg id="Layer_1" xmlns="http://www.w3.org/2000/svg" version="1.1" viewBox="0 0 50 50">
  <!-- Generator: Adobe Illustrator 30.1.0, SVG Export Plug-In . SVG Version: 2.1.1 Build 136)  -->
  <defs>
    <style>
      .st0 {
        fill: #dbdbdb;
      }

      .st1 {
        fill: #81749a;
      }
    </style>
  </defs>
  <path class="st1" d="M25,7.17C15.17,7.17,7.17,15.17,7.17,25s8,17.83,17.83,17.83,17.83-8,17.83-17.83S34.83,7.17,25,7.17ZM33.67,20.39c1.82.36,3.61.83,5.29,1.39.03.01.06.02.08.03.25,1.11.38,2.16.38,3.19s-.12,2.11-.38,3.19l-.07.02c-1.71.57-3.49,1.04-5.31,1.4.29-3.07.29-6.16,0-9.23h0ZM33.18,16.83c-.25-1.42-.57-2.85-.95-4.27,2.15,1.25,3.95,3.06,5.21,5.21-1.38-.37-2.8-.69-4.26-.94ZM32.24,37.44c.37-1.38.69-2.81.94-4.27,1.44-.25,2.87-.56,4.26-.94-1.26,2.15-3.06,3.95-5.21,5.2h0ZM30.18,30.17c-1.71.2-3.46.3-5.18.3s-3.46-.1-5.16-.3c-.4-3.43-.4-6.91,0-10.33,1.71-.2,3.45-.3,5.17-.3s3.46.1,5.17.3c.4,3.43.4,6.9,0,10.33ZM29.61,16.35c-1.53-.15-3.08-.22-4.61-.22s-3.09.07-4.61.22c.36-1.82.83-3.6,1.39-5.3.01-.03.02-.05.03-.08,1.12-.26,2.16-.38,3.19-.38s2.13.13,3.19.37c0,.02.01.05.02.07.57,1.72,1.04,3.5,1.4,5.32ZM20.39,33.67c1.55.15,3.1.22,4.61.22s3.06-.08,4.61-.22c-.36,1.82-.83,3.6-1.4,5.32,0,.02,0,.03-.01.05-1.07.25-2.14.37-3.2.37s-2.13-.13-3.19-.38c0-.02-.01-.04-.02-.06-.57-1.7-1.04-3.48-1.4-5.31h0ZM17.76,12.57c-.37,1.37-.67,2.77-.93,4.25-1.42.25-2.85.56-4.27.95,1.25-2.14,3.05-3.94,5.19-5.2h.01ZM16.33,29.61c-1.82-.36-3.6-.83-5.33-1.41-.01,0-.03,0-.04-.01-.26-1.12-.38-2.17-.38-3.2s.12-2.13.37-3.19c.02,0,.05-.02.08-.02,1.7-.57,3.48-1.04,5.31-1.4-.29,3.07-.29,6.16,0,9.23h-.01ZM16.82,33.18c.25,1.45.56,2.87.94,4.25-2.14-1.25-3.94-3.05-5.19-5.18,1.37.37,2.77.67,4.25.93Z"/>
  <g>
    <rect class="st0" x="10.18" y="39.06" width="7.37" height="7.37" rx=".36" ry=".36"/>
    <rect class="st0" x="21.31" y="39.06" width="7.37" height="7.37" rx=".36" ry=".36"/>
    <rect class="st0" x="32.44" y="39.06" width="7.37" height="7.37" rx=".36" ry=".36"/>
  </g>
</svg>