<?xml version="1.0" encoding="UTF-8"?>
<svg id="Layer_1" xmlns="http://www.w3.org/2000/svg" version="1.1" viewBox="0 0 50 50">
  <!-- Generator: Adobe Illustrator 30.1.0, SVG Export Plug-In . SVG Version: 2.1.1 Build 136)  -->
  <defs>
    <style>
      .st0 {
        fill: #fff;
      }

      .st1 {
        fill: #c63e3e;
        fill-rule: evenodd;
      }
    </style>
  </defs>
  <path class="st1" d="M42.88,17.65s-.36-2.54-1.45-3.65c-1.39-1.46-2.95-1.47-3.66-1.55-5.11-.37-12.77-.37-12.77-.37h-.02s-7.66,0-12.77.37c-.71.09-2.27.09-3.66,1.55-1.09,1.12-1.45,3.65-1.45,3.65,0,0-.37,2.97-.37,5.95v2.79c0,2.97.37,5.95.37,5.95,0,0,.36,2.53,1.45,3.65,1.39,1.46,3.21,1.42,4.03,1.57,2.92.28,12.41.37,12.41.37,0,0,7.67-.01,12.78-.38.71-.09,2.27-.09,3.66-1.56,1.09-1.12,1.45-3.65,1.45-3.65,0,0,.36-2.98.36-5.95v-2.79c0-2.98-.36-5.95-.36-5.95h0Z"/>
  <polygon class="st0" points="21.23 19.44 21.23 29.77 31.09 24.62 21.23 19.44"/>
</svg>