<?xml version="1.0" encoding="UTF-8"?>
<svg id="Layer_1" xmlns="http://www.w3.org/2000/svg" version="1.1" viewBox="0 0 50 50">
  <!-- Generator: Adobe Illustrator 30.1.0, SVG Export Plug-In . SVG Version: 2.1.1 Build 136)  -->
  <defs>
    <style>
      .st0 {
        fill: #baa4c8;
      }
    </style>
  </defs>
  <path class="st0" d="M22.02,8.97c-.82,0-1.49.67-1.49,1.49v.75h-8.95c-.82,0-1.49.67-1.49,1.49s.67,1.49,1.49,1.49h26.84c.82,0,1.49-.67,1.49-1.49s-.67-1.49-1.49-1.49h-8.95v-.75c0-.82-.67-1.49-1.49-1.49h-5.97ZM12.32,15.68v20.88c0,2.47,2.01,4.47,4.47,4.47h16.4c2.47,0,4.47-2.01,4.47-4.47V15.68H12.32ZM17.92,18.66c.62,0,1.12.5,1.12,1.12v15.66c0,.62-.5,1.12-1.12,1.12s-1.12-.5-1.12-1.12v-15.66c0-.62.5-1.12,1.12-1.12ZM25,18.66c.82,0,1.49.67,1.49,1.49v14.91c0,.82-.67,1.49-1.49,1.49s-1.49-.67-1.49-1.49v-14.91c0-.82.67-1.49,1.49-1.49ZM32.08,18.66c.62,0,1.12.5,1.12,1.12v15.66c0,.62-.5,1.12-1.12,1.12s-1.12-.5-1.12-1.12v-15.66c0-.62.5-1.12,1.12-1.12Z"/>
</svg>